<?xml version="1.0" encoding="utf-8"?>
<!-- Generator: Adobe Illustrator 18.0.0, SVG Export Plug-In . SVG Version: 6.00 Build 0)  -->
<!DOCTYPE svg PUBLIC "-//W3C//DTD SVG 1.1//EN" "http://www.w3.org/Graphics/SVG/1.1/DTD/svg11.dtd">
<svg version="1.1" id="Layer_1" xmlns="http://www.w3.org/2000/svg" xmlns:xlink="http://www.w3.org/1999/xlink" x="0px" y="0px"
	 viewBox="0 0 1400 980" enable-background="new 0 0 1400 980" xml:space="preserve">
<g>
	<rect fill="#00A79D" width="1400" height="980"/>
	<path fill="#FFFFFF" d="M422.6,437.2c-0.4-0.7-1.2-1-2-0.7c0.9-0.4,1.3-0.6,1.3-0.6c0-7.8-6.4-18-15.9-15.8
		c-9.5,2.1-20.5,14.5-20.5,14.5c-0.1-2.5-6.8-17.2-11.1-15.1c-1.3,0.6-3.6,1.7-6,2.9L357.7,402c5.9-3.2,8.7-7.1,8.7-7.1
		c-7.1-16-17.6-31.6-21-36.4c1.5-2.3,2.8-3.9,4-4.8c-1.4-22.7-4.4-41.1-7.8-55.6c3.8,4.3,7.6,8.2,8.8,8.2c1.8,0,11.7-10.6,18.8-18.4
		c2.1-2.4,4-4.5,5.3-6c1.4,1.2,2.7,2,3.4,2.1c2.6,0.2,12.2-2.8,13.4-4.6c1.2-1.8,5.8-5.7,7.7-9.9c1.8-4.2-1.2-5.7-1.2-5.7
		c1-2.5-2.9-4-2.9-4c0.4-1.3-3.9-4.6-3.9-4.6s2-3.9,0.9-4.4c-1.1-0.5-7.1-2-8.4-1c-1.3,1-6,5.4-6,5.4s-3.6-1.5-5.8-0.9
		c-2.2,0.6-5.3,5.6-5.9,9.1c-0.7,3.5-1.1,10.2,1.7,11.7c0,0,0,0,0,0c-1.8,1.6-4.1,3.8-6.4,6c-4.8,4.6-9.5,9.3-9.5,9.3
		c-1-1.6-4.1-4.8-6.6-7.3c1.2-1.6,2.1-3.5,2.8-5.7c0,0-6.4-1.3-13.4-10.6c-2.4-3.1-4.5-5.9-6.5-8c-1.4-2.8-2.3-4.2-2.3-4.2
		s-1.6-7.5,2.1-17.7c3.7-10.2,18.7-8.6,36.4-9.6c17.7-1.1,15.9-16.6,15.9-16.6s2.3-3.2,2.3-5.4s-2.3-4.3-2.3-4.3l6-1.1l-1.1-7
		c8,2.1,9.1-5.9,6.4-12.9c-2.7-7-11.2,0-11.2,0s-13.4-7.5-8-24.1c2.8-8.8,1.3-16.4-0.7-21.6c2-1.7,2.7-4.3,2.7-4.3s5.4-2.9,3.6-8.9
		c-1.8-6.1-8.2-6.1-8.2-6.1s5.4-3.6,0-10c-5.4-6.4-11.1,0.4-11.1,0.4s2.1-7.1-6.8-8.6c-8.9-1.4-9.6,6.1-9.6,6.1s-0.4-8.2-10-8.2
		s-10.4,7.5-10.4,7.5s-1.4-8.8-10.7-6.6s-6.4,10.7-6.4,10.7s-3.9-6.4-12.9-3.6s-5.4,11.4-5.4,11.4s-6.4-5.4-13.6,0
		c-7.1,5.4-1.5,12.8-1.5,12.8s-6.7-1.9-11.3,4.8s2.1,12.1,2.1,12.1s-11.8-3.2-13.9,8.2c-2.1,11.4,6.4,13.6,6.4,13.6s-9.3,1.1-8.6,10
		c0.7,8.9,10.4,8.2,10.4,8.2s-8.9,1.1-7.1,10s10.4,7.5,10.4,7.5s-6.4,7.1,0,13.2c6.4,6.1,14.3,0,14.3,0s-2.9,5.7,2.1,9.6
		c5,3.9,11.1,0,11.1,0c-1.8,13.9,12.1,9.3,12.1,9.3c10.4-3.2,12.9,8.2,12.9,8.2v0c0.1,1.6,0.2,3.4,0.3,5.2l0,0l-3.1,4.2h0l-1.1,1.5
		c-5.3,0.4-11.2,8.4-27.4,19.7c0,0,1,3.9,3.7,8.1c-5,5.8-13.1,15.6-12.7,17.5c0.3,1.7,12.4,9.7,21.4,15.3c2.7,1.7,5.1,3.2,6.8,4.2
		c-0.9,1.6-1.5,3-1.5,3.8c0.2,2.6,4.8,11.5,6.8,12.4c0.2,0.1,0.5,0.2,0.8,0.4c-2.2,9.2-4.5,13.7-4.5,13.7s0.7,9.9,1.4,14.2
		c0.7,4.3-5.4,25.7-10,32.9c0,0,0.7,0.7,1.9,1.7l-11.5,8.2c-1.5-2.4-2.6-4.1-2.6-4.1s-30,19-28.2,21.8l-2.9,1.1
		c-1,0.4-1.4,1.4-1,2.4c2.8,6.6,12.6,30,13.3,33.4c0.8,3.9,8.5,2.6,10.5,2.6s20.8,0,24.3,0s3.9-5.2,1.3-5.2c7.8-0.9,14-12,9-20.3
		c-6.8-11.4-24-7.3-28.1-6.1c3.9-1.5,15.2-8.8,12.9-12.4c-0.8-1.2-2.1-3.3-3.6-5.7l15-10.2c5.6,2.9,13.1,5.2,21.3,3.5
		c0,0,2.2-6.1,5.4-14.1c3.5,5.9,9.6,14.7,9.6,14.7c3.5,0.1,6.6-0.2,9.3-0.8l11.6,20.9c-2.6,1.2-4.4,2.1-4.4,2.1s15.5,32,18.5,30.5
		c0,0,0.1,0,0.1-0.1c-0.7,0.4-1,1.2-0.7,2l0.8,1.7c0.4,0.7,1.2,1,2,0.7l45.8-22.2c0.7-0.4,1-1.2,0.7-2L422.6,437.2z M315,177
		L315,177L315,177L315,177z M318.3,196.2c-0.1-0.1-0.2-0.2-0.3-0.2C318.2,196.2,318.3,196.2,318.3,196.2z M301.2,192.9
		c-1.7,0.7-3.2,1.9-4.2,3.5C297.8,194.6,299.2,193.3,301.2,192.9z M305.7,309.7C305.7,309.7,305.7,309.7,305.7,309.7
		c-1.9-1.4-4.5-3.3-7.1-5.2c-5.3-3.9-10.8-7.7-10.8-7.7c1.4-1.3,4-4.9,6-7.7c1.8,0.9,3.8,1.5,6.1,1.8c0,0,0.2-6.5,8.1-15
		c0.4-0.5,0.9-0.9,1.3-1.4c1,12.5,1.1,23.3,0.6,32.5C307.9,307.3,306.1,308.2,305.7,309.7z M418,437.8l-2,0.9
		C416.7,438.4,417.4,438.1,418,437.8z M419.3,437.2l-0.6,0.3C418.9,437.4,419.1,437.3,419.3,437.2z M414.8,439.4l-1.4,0.7
		C413.9,439.8,414.4,439.6,414.8,439.4z M413.2,440.1l-1,0.5C412.5,440.5,412.9,440.3,413.2,440.1z M407.2,443l-1.6,0.8
		C406.2,443.5,406.7,443.3,407.2,443z M388.7,452l-1,0.5C388,452.3,388.4,452.1,388.7,452z M402.1,445.5l-0.7,0.3
		C401.6,445.7,401.8,445.6,402.1,445.5z M399.4,446.8l-1.4,0.7C398.4,447.3,398.9,447.1,399.4,446.8z M395.4,448.8l-0.6,0.3
		C395,449,395.2,448.9,395.4,448.8z M384.7,453.9l-0.7,0.3C384.3,454.1,384.5,454,384.7,453.9z"/>
	<path fill="#FFFFFF" d="M512.7,456.2c0.1,0.8,0.8,1.4,1.7,1.3l1.8-0.2c0.8-0.1,1.4-0.8,1.3-1.7l0-0.1c0.1,1,0.2,1.6,0.2,1.6
		c7.4,2.5,19.1-0.2,20.2-9.9s-7-24.1-7-24.1c2.3,0.7,18.4-0.8,17.9-5.6c-0.2-1.4-0.5-3.8-0.8-6.4c4.5-0.1,11.4-0.4,12.6-1.6
		c0.9-0.9,4.1-4.2,7.1-7.2c4.4,2.6,9.6,4.4,15,3.9c0,0,2.9-4.5,7.2-10.8c1.7,6.7,3.8,14.7,3.8,14.7c4.4,0.2,8.5-0.1,12.1-0.7l2.3,17
		c-3.3,0-5.9,0-5.9,0s-0.3,35.5,3.1,35.5c0,0,0.1,0,0.1,0c-0.8,0-1.5,0.7-1.5,1.5l0,1.9c0,0.8,0.7,1.5,1.5,1.5l50.9,0.4
		c0.8,0,1.5-0.7,1.5-1.5l0-1.9c0-0.8-0.7-1.5-1.5-1.5l-0.5,0c1.3,0,2,0,2,0c3.4-7,2.2-18.9-7.3-21.2c-9.5-2.3-24.8,3.9-24.8,3.9
		c1-2.2,1.5-18.4-3.3-18.4c-1.3,0-3.3,0-5.7,0l-2.1-19.1c5.7-1.8,9-3.8,9-3.8c-4.3-19.2-9.4-35.2-10.8-39.8c1.8-2.1,3.4-3.7,4.6-4.6
		c-1-16.4-2.8-30.6-5.1-42.6c4.9-2.5,11.9-6.6,17.5-9.9c2.7-1.6,5.1-3.1,6.8-4.2c1,1.5,2,2.7,2.7,3c2.4,1,12.5,0.9,14.2-0.5
		c1.7-1.4,7.2-3.8,10.2-7.2c3-3.5,0.5-5.8,0.5-5.8c1.7-2.1-1.6-4.6-1.6-4.6c0.7-1.1-2.4-5.5-2.4-5.5s3-3.1,2.1-4s-6.2-3.9-7.8-3.4
		c-1.5,0.5-7.3,3.4-7.3,3.4s-3-2.5-5.2-2.5s-6.7,3.9-8.3,7s-4,9.5-1.8,11.6c0,0,0,0,0,0c-2.2,1-5,2.4-7.9,3.9
		c-5.9,3-11.8,6.2-11.8,6.2c-0.6-1.8-2.6-5.7-4.2-8.9c1.6-1.2,3.1-2.8,4.3-4.7c0,0-5.7-3.1-9.8-14c-2.5-6.9-4.5-12.3-7.8-14.5
		c-0.7-1.3-1.1-1.9-1.1-1.9s-1.6-7.5,2.1-17.7c3.8-10.2,18.7-8.6,36.4-9.6s15.9-16.6,15.9-16.6s2.3-3.2,2.3-5.4s-2.3-4.3-2.3-4.3
		l6-1.1l-1.1-7c8,2.1,9.1-5.9,6.4-12.9c-2.7-7-11.2,0-11.2,0s-13.4-7.5-8-24.1c2.8-8.8,1.3-16.4-0.7-21.6c2-1.7,2.7-4.3,2.7-4.3
		s5.4-2.9,3.6-8.9c-1.8-6.1-8.2-6.1-8.2-6.1s5.4-3.6,0-10s-11.1,0.4-11.1,0.4s2.1-7.1-6.8-8.6c-8.9-1.4-9.6,6.1-9.6,6.1
		s-0.4-8.2-10-8.2s-10.4,7.5-10.4,7.5s-1.4-8.8-10.7-6.6s-6.4,10.7-6.4,10.7s-3.9-6.4-12.9-3.6c-8.9,2.9-5.4,11.4-5.4,11.4
		s-6.4-5.4-13.6,0c-7.1,5.4-1.5,12.8-1.5,12.8s-6.7-1.9-11.3,4.8c-4.6,6.8,2.1,12.1,2.1,12.1s-11.8-3.2-13.9,8.2s6.4,13.6,6.4,13.6
		s-9.3,1.1-8.6,10s10.4,8.2,10.4,8.2s-8.9,1.1-7.1,10s10.4,7.5,10.4,7.5s-6.4,7.1,0,13.2c6.4,6.1,14.3,0,14.3,0s-2.9,5.7,2.1,9.6
		s11.1,0,11.1,0c-1.8,13.9,12.1,9.3,12.1,9.3c10.4-3.2,12.9,8.2,12.9,8.2v0c0.1,1.6,0.2,3.4,0.3,5.2l0,0l-3.1,4.2l0,0l-1.1,1.5
		c-5.3,0.4-11.2,8.4-27.4,19.7c0,0,1,3.8,3.6,7.9c-4.9,5.5-12.7,14.5-12.4,16.4c0.2,1.2-0.3,6-0.7,12c-0.1,2.1-0.3,4.4-0.3,6.7
		c-0.9,0-1.7,0.1-2.6,0.2c-6.3,0.9-6.3,16.8-6.3,16.8c-0.6,0.1-1.1,2.7-1.3,5.3c0,0,0,0.1,0,0.1s0,0,0,0c-0.1,1.8-0.1,3.5,0,4.4
		c0.4,2.1,3.1,2.2,4.2,2.4c1.2,0.1,1.3-1.1,1.3-1.1s0.3,1.3,1.2,1.4s6,0,6,0s0.2,2.4,1.4,2.6c1.2,0.1,7.9,1,8.1-0.6
		c0.2-1.6,0.7-6.8,0.7-6.8s6.1-0.5,6.4-2.5c0.3-2,0.1-5.2-0.3-11.9c-0.5-6.7-6.6-8.6-6.6-8.6s-0.6-0.2-1.6-0.4
		c0.2-2.1,0.4-4.4,0.7-6.8c0.7-5.9,1.6-11.4,1.6-11.4c1.5-1.4,5.9-6.3,9.1-9.8c1.9,1,4.2,1.7,6.7,2c0,0,0.2-6.5,8.1-15
		c0.4-0.5,0.9-0.9,1.3-1.4c4.2,50.5-7.7,73.6-7.7,73.6s0.9,9.2-1.1,13.1c-2.5,5-10.7,15.9-15.4,23c0,0,2.7,3.6,7.1,7.5
		c-1.4,1.5-2.6,2.9-3.3,3.6c-0.9,1-6.4,1.4-10.2,1.6c-0.3-2.9-0.6-4.9-0.6-4.9s-35.3,4.2-34.9,7.6c0,0.1,0,0.2,0,0.3l0-0.2
		c-0.1-0.8-0.8-1.4-1.7-1.3l-1.8,0.2c-0.8,0.1-1.4,0.8-1.3,1.7L512.7,456.2z M607,462l-0.3,0C606.8,462,606.9,462,607,462z
		 M651.2,462.4l-3.9,0C648.7,462.3,650,462.3,651.2,462.4z M655.5,462.4l-0.8,0C655,462.4,655.3,462.4,655.5,462.4z M653.5,462.4
		l-1.6,0C652.4,462.4,653,462.4,653.5,462.4z M609.1,462C609.1,462,609.1,462,609.1,462L609.1,462z M614.7,462.1c0.2,0,0.4,0,0.5,0
		L614.7,462.1z M616.4,462.1c0.4,0,0.7,0,1.1,0L616.4,462.1z M620.9,462.1c0.3,0,0.5,0,0.8,0L620.9,462.1z M626.2,462.2
		c0.5,0,1,0,1.5,0L626.2,462.2z M628.4,462.2c1.7,0,3.4,0,5,0L628.4,462.2z M634.9,462.2c1.5,0,2.9,0,4.3,0L634.9,462.2z
		 M641.4,462.3c0.3,0,0.6,0,0.9,0L641.4,462.3z M586,201.6c0.2,0.1,0.3,0.2,0.3,0.2C586.3,201.8,586.2,201.7,586,201.6z
		 M587.1,156.4L587.1,156.4L587.1,156.4L587.1,156.4z M569.2,198.5c-1.7,0.7-3.2,1.9-4.2,3.5C565.9,200.2,567.3,198.9,569.2,198.5z
		 M512.8,416.7c0.1,0.5,0.1,0.9,0.2,1.4L512.8,416.7z M513.6,423c0.2,1.6,0.4,3.3,0.6,4.9L513.6,423z M513.2,419.8
		c0.1,1,0.2,2,0.4,3L513.2,419.8z M514.3,429.1c0.1,0.5,0.1,1,0.2,1.5L514.3,429.1z M516.1,443.9c0.1,0.4,0.1,0.9,0.2,1.3
		L516.1,443.9z M514.6,431.6c0.1,0.7,0.2,1.4,0.2,2.1L514.6,431.6z M515.2,436.3c0,0.4,0.1,0.8,0.1,1.1L515.2,436.3z M515.5,438.9
		c0,0.3,0.1,0.6,0.1,0.9L515.5,438.9z M515.8,441.8c0,0.4,0.1,0.8,0.1,1.1L515.8,441.8z M516.9,450.5c0.1,1,0.2,1.9,0.3,2.7
		L516.9,450.5z M516.3,446.1c0,0.3,0.1,0.6,0.1,0.9L516.3,446.1z M516.6,448.2c0.1,0.6,0.1,1.1,0.2,1.6L516.6,448.2z M517.2,453.2
		c0.1,0.9,0.2,1.6,0.3,2.2L517.2,453.2z M512.6,414.6l-0.3-2.4C512.4,413,512.5,413.8,512.6,414.6z M512,409.7l-0.1-0.5
		C511.9,409.4,512,409.5,512,409.7z M511.8,408.3l-0.1-0.6C511.8,407.9,511.8,408.1,511.8,408.3z M511.6,406.3l-0.1-0.8
		C511.5,405.8,511.5,406,511.6,406.3z"/>
	<path fill="#FFFFFF" d="M688.3,844.4c-0.4-0.7-1.3-1-2-0.6c0.8-0.4,1.3-0.7,1.3-0.7c-0.2-7.8-6.8-17.8-16.3-15.5
		s-20.2,14.9-20.2,14.9c-0.1-2.4-7.2-17-11.4-14.9c-1.1,0.6-3,1.5-5,2.6L621.2,810c2.1-3.6,3-6,3-6c-14.2-11.3-27.1-20-32.2-23.4
		c-1.5-24.5-4.9-44-8.6-59c1.3-0.6,2.8-1.4,4.3-2.5c6,4.8,16,12.5,17.9,12.1c1.7-0.4,9.3-12.8,14.6-21.9c1.6-2.8,3-5.2,4-6.9
		c1.6,0.9,3,1.4,3.8,1.3c2.6-0.3,11.4-5.2,12.2-7.3c0.8-2,4.5-6.8,5.5-11.3c0.9-4.5-2.3-5.4-2.3-5.4c0.4-2.6-3.6-3.3-3.6-3.3
		c0.1-1.3-4.8-3.7-4.8-3.7s1.1-4.2,0-4.5c-1.2-0.3-7.4-0.5-8.4,0.8s-4.7,6.5-4.7,6.5s-3.8-0.8-5.8,0.3c-2,1.1-4,6.6-3.9,10.1
		c0.1,3.5,1,10.3,4,11.1c0,0,0,0,0,0c-1.4,1.9-3.2,4.5-5,7.2c-3.7,5.5-7.4,11.1-7.4,11.1c-1.4-1.3-5-3.8-7.9-5.7
		c0.8-1.8,1.4-3.9,1.5-6.2c0,0-6.5,0-15.3-7.6c-3.9-3.4-7.2-6.3-10.2-7.8c-2.1-4.4-3.5-6.5-3.5-6.5s-1.6-7.5,2.1-17.7
		c3.8-10.2,18.7-8.6,36.4-9.6c17.7-1.1,15.9-16.6,15.9-16.6s2.3-3.2,2.3-5.4s-2.3-4.3-2.3-4.3l6-1.1l-1.1-7c8,2.1,9.1-5.9,6.4-12.9
		c-2.7-7-11.2,0-11.2,0s-13.4-7.5-8-24.1c2.8-8.8,1.3-16.4-0.7-21.6c2-1.7,2.7-4.3,2.7-4.3s5.4-2.9,3.6-8.9
		c-1.8-6.1-8.2-6.1-8.2-6.1s5.4-3.6,0-10c-5.4-6.4-11.1,0.4-11.1,0.4s2.1-7.1-6.8-8.6c-8.9-1.4-9.6,6.1-9.6,6.1s-0.4-8.2-10-8.2
		s-10.4,7.5-10.4,7.5s-1.4-8.8-10.7-6.6c-9.3,2.1-6.4,10.7-6.4,10.7s-3.9-6.4-12.9-3.6c-8.9,2.9-5.4,11.4-5.4,11.4s-6.4-5.4-13.6,0
		c-7.1,5.4-1.5,12.8-1.5,12.8s-6.7-1.9-11.3,4.8s2.1,12.1,2.1,12.1s-11.8-3.2-13.9,8.2s6.4,13.6,6.4,13.6s-9.3,1.1-8.6,10
		c0.7,8.9,10.4,8.2,10.4,8.2s-8.9,1.1-7.1,10c1.8,8.9,10.4,7.5,10.4,7.5s-6.4,7.1,0,13.2c6.4,6.1,14.3,0,14.3,0s-2.9,5.7,2.1,9.6
		c5,3.9,11.1,0,11.1,0c-1.8,13.9,12.1,9.3,12.1,9.3c10.4-3.2,12.9,8.2,12.9,8.2v0c0.1,1.6,0.2,3.4,0.3,5.2l0,0l-3.1,4.2l0,0
		l-1.2,1.6c-5.2,0-12.1,0-21-0.8c0,0-1.7,3.5-2.4,8.4c-7.3,1-19.1,2.9-20,4.6c-0.6,1.1-4,4.4-8.2,8.7c-1.5,1.5-3,3.2-4.6,4.9
		c-0.7-0.6-1.4-1.1-2.1-1.5c-5.4-3.4-15.7,8.8-15.7,8.8c-0.6-0.3-2.6,1.4-4.3,3.2c0,0,0,0,0,0s0,0,0,0c-1.2,1.3-2.4,2.6-2.8,3.4
		c-1,1.9,0.9,3.7,1.7,4.6s1.7,0,1.7,0s-0.6,1.2,0,1.9s4.6,3.9,4.6,3.9s-1.4,2-0.6,2.8c0.8,0.9,5.4,5.9,6.6,4.8s4.9-4.7,4.9-4.7
		s5,3.5,6.5,2.2c1.5-1.4,3.4-3.9,7.4-9.3c4-5.5,0.5-10.9,0.5-10.9s-0.4-0.5-1-1.3c1.5-1.5,3.2-3.1,4.9-4.7c4.3-4,8.6-7.7,8.6-7.7
		c2.1-0.1,8.6-1,13.3-1.7c0.8,2,2.1,4,3.8,5.9c0,0,4.4-4.9,15.9-6.2c1.1-0.1,2.1-0.3,3.1-0.4c4.9,52.4-7.4,76.3-7.4,76.3
		s-1.9,8-5.1,12.6c-3.2,4.5-10.9,15.7-15.5,22.8c0,0,0.2,0.4,0.7,1.2l-3.2-2.4c1.9-2.1,3.3-3.7,3.3-3.7s-26.3-23.9-28.6-21.3
		c0,0-0.1,0.1-0.1,0.1c0.6-0.6,0.5-1.5-0.1-2.1l-1.4-1.2c-0.6-0.6-1.5-0.5-2.1,0.1L458,818.6c-0.6,0.6-0.5,1.5,0.1,2.1l1.4,1.2
		c0.6,0.6,1.5,0.5,2.1-0.1c-0.6,0.7-1,1.1-1,1.1c3,7.3,12.7,14.2,20.7,8.7c8-5.5,13.6-21.1,13.6-21.1c1,2.3,12.7,13.4,15.9,9.9
		c1-1.1,2.6-2.9,4.4-4.8l16.4,12.9c2.2,1.7,5.3,1.5,7.2-0.5l1.9-2c2.7,1,5.6,1.5,8.8,1.2c0,0,8.9-10.5,18.6-21.5
		c9.6,6,36.8,22.4,36.8,22.4c4.4-3.3,7.9-6.7,10.7-10l11.4,16.2c-3,1.5-5.2,2.7-5.2,2.7s16.2,31.6,19.2,30.1c0.2-0.1,0.5-0.3,1-0.5
		l-0.8,0.4c-0.7,0.4-1,1.3-0.6,2l0.8,1.7c0.4,0.7,1.3,1,2,0.6l45.3-23.2c0.7-0.4,1-1.3,0.6-2L688.3,844.4z M560.5,623
		c0.2,0.1,0.3,0.2,0.3,0.2C560.8,623.2,560.7,623.1,560.5,623z M561.6,577.7L561.6,577.7L561.6,577.7L561.6,577.7z M543.7,619.9
		L543.7,619.9c-1.7,0.7-3.2,1.9-4.2,3.5C540.4,621.6,541.8,620.3,543.7,619.9z M493.7,786.4c-1.9,2.1-5,5.5-8.4,9.3L493.7,786.4z
		 M462.9,820.3l1.6-1.7C463.9,819.2,463.4,819.8,462.9,820.3z M461.9,821.5l0.5-0.6C462.2,821.1,462.1,821.3,461.9,821.5z
		 M468.5,814.2l1.8-2C469.7,812.9,469.1,813.5,468.5,814.2z M476.4,805.5l8.2-9.1C482,799.4,479.1,802.5,476.4,805.5z M683.3,845.3
		l-1.4,0.7C682.4,845.7,682.9,845.5,683.3,845.3z M685.2,844.3l-1,0.5C684.5,844.6,684.9,844.5,685.2,844.3z M681,846.4l-1.5,0.7
		C680.1,846.9,680.6,846.7,681,846.4z M678.2,847.9l-1.3,0.7C677.3,848.3,677.7,848.1,678.2,847.9z M676,849l-1.1,0.6
		C675.2,849.4,675.6,849.2,676,849z M655.8,859.3l-1.7,0.9C654.7,859.9,655.2,859.6,655.8,859.3z M669.8,852.2l-0.9,0.4
		C669.2,852.5,669.5,852.3,669.8,852.2z M668.4,852.9l-2,1C667.1,853.5,667.8,853.2,668.4,852.9z M666.4,853.9l-2,1
		C665,854.6,665.7,854.2,666.4,853.9z M664.2,855l-5.3,2.7C660.7,856.8,662.4,855.9,664.2,855z M653.9,860.3l-6.5,3.3
		C649.3,862.6,651.5,861.5,653.9,860.3z M642.1,866.3c0.2-0.1,0.3-0.2,0.5-0.3L642.1,866.3z M642.8,866c1-0.5,2.3-1.2,3.9-2
		L642.8,866z"/>
	<path fill="#FFFFFF" d="M1153.6,716.9c-0.2-1.2-1.4-1-1.4-1s1.2-0.7,1.1-1.5c-0.1-0.8-1.6-5.8-1.6-5.8s2.3-0.8,2.1-2
		s-1.2-7.9-2.8-7.7c-1.6,0.2-6.7,1.2-6.7,1.2s-2.2-5.7-4.2-5.4c-2,0.3-5,1.3-11.4,3.6c-6.3,2.3-6.5,8.7-6.5,8.7s0,0.6,0.1,1.6
		c-2.1,0.4-4.4,0.8-6.7,1.1c-5.9,0.9-11.4,1.6-11.4,1.6c-1.8-1.1-7.7-4-11.9-6.1c0.4-2.1,0.5-4.5,0.1-7c0,0-6.3,1.6-16.7-3.7
		c-4.6-2.4-8.6-4.4-11.8-5.1c-0.4-2.4-0.8-3.5-0.8-3.5s0.7-7.6,7.3-16.3c6.6-8.6,20.4-2.7,37.7,1.5s20.1-11.2,20.1-11.2
		s3.1-2.4,3.8-4.4c0.6-2-0.9-4.8-0.9-4.8l6.1,0.8l1-7c7,4.4,10.4-3,9.9-10.4c-0.5-7.4-10.8-3.3-10.8-3.3s-10.6-11.1-0.6-25.4
		c5.3-7.6,6.1-15.3,5.6-20.9c2.4-1.1,3.9-3.3,3.9-3.3s6-1.2,6-7.5s-6.1-8.2-6.1-8.2s6.2-1.8,2.9-9.6c-3.2-7.7-10.7-2.9-10.7-2.9
		s4.2-6.2-4-10.2c-8.1-4-11,3-11,3s2.1-8-7.1-10.8c-9.2-2.8-12.1,4.1-12.1,4.1s1.2-8.8-8.3-9.5c-9.5-0.7-9.3,8.3-9.3,8.3
		s-1.9-7.3-11.2-7.2c-9.4,0.1-8.5,9.3-8.5,9.3s-4.6-7-13-4c-8.4,3-5.2,11.8-5.2,11.8s-5.8-3.8-12.3,1.3s-1.5,12.2-1.5,12.2
		s-10.3-6.5-15.7,3.8c-5.4,10.3,2.1,14.9,2.1,14.9s-9.2-1.7-11.1,7c-1.9,8.7,7.5,10.9,7.5,10.9s-8.8-1.6-9.8,7.5
		c-0.9,9.1,7.7,10.2,7.7,10.2s-8.2,4.9-3.9,12.6s13.7,4.2,13.7,4.2s-4.4,4.6-0.8,9.8c3.6,5.2,10.6,3.3,10.6,3.3
		c-5.8,12.8,8.9,12.4,8.9,12.4c10.8,0,9.9,11.7,9.9,11.7l0,0c-0.3,1.5-0.8,3.3-1.2,5l0,0l-4.2,3.1l0,0l-1.4,1.1
		c-4.5-3.2-11.3-7.5-20.1-14.7c0,0-3.4,1.9-6.7,5.6c-6.6-3.2-17.4-8.3-19.2-7.4c-1.1,0.5-5.8,1.4-11.7,2.6c-2.1,0.4-4.3,0.9-6.5,1.5
		c-0.3-0.8-0.5-1.7-0.9-2.4c-2.5-5.9-17.9-1.5-17.9-1.5c-0.3-0.5-2.9-0.3-5.4,0.2c0,0,0,0,0,0s0,0,0,0c-1.7,0.4-3.4,0.8-4.2,1.2
		c-1.9,1-1.3,3.6-1.1,4.7s1.4,1,1.4,1s-1.2,0.7-1.1,1.5c0.1,0.8,1.6,5.8,1.6,5.8s-2.3,0.8-2.1,2s1.2,7.9,2.8,7.7
		c1.6-0.2,6.7-1.2,6.7-1.2s2.2,5.7,4.2,5.4s5-1.3,11.4-3.6s6.5-8.7,6.5-8.7s0-0.6-0.1-1.6c2.1-0.4,4.4-0.8,6.7-1.1
		c5.9-0.9,11.4-1.6,11.4-1.6c1.8,1.1,7.7,4,11.9,6.1c-0.4,2.1-0.5,4.5-0.1,7c0,0,6.3-1.6,16.7,3.7c4.3,2.2,8,4.1,11.2,5
		c-10.7,52.3-29.7,71.6-29.7,71.6s-1.9,9.1-4.9,12.2c-3.9,4-16.3,13.4-22.8,18.8c0,0,1.8,3.7,5,8.4c-1.4,0.8-2.6,1.5-3.3,1.9
		c-1.2,0.6-6.6-0.6-10.2-1.5c0.5-2.8,0.9-4.9,0.9-4.9s-34.9-6.3-35.6-3c-0.1,0.6-0.4,2.4-0.9,5l0.9-4.9c0.1-0.8-0.4-1.6-1.2-1.7
		l-1.8-0.3c-0.8-0.1-1.6,0.4-1.7,1.2l-9.1,50.1c-0.1,0.8,0.4,1.6,1.2,1.7l1.8,0.3c0.8,0.1,1.6-0.4,1.7-1.2c-0.2,0.9-0.3,1.5-0.3,1.5
		c6.3,4.6,18.3,5.4,22.2-3.6c3.9-8.9,0.4-25.1,0.4-25.1c2,1.4,17.9,4.6,18.7,0c0.3-1.4,0.7-3.7,1.1-6.3c4.3,1.2,11,3,12.5,2.1
		c1-0.6,4.4-2.4,7.9-4.2c4.7,5.6,10.8,11,17.4,12.4c0,0,8.9-9.4,18.9-19c8.2,5,31.2,19.6,31.2,19.6c3.2-3.1,5.7-6.3,7.8-9.3l13.9,10
		c-2.3,2.4-4.1,4.2-4.1,4.2s25.7,24.5,28,22.1c0.3-0.3,1.1-1.2,2.3-2.5l-2.3,2.4c-0.6,0.6-0.5,1.5,0,2.1l1.3,1.3
		c0.6,0.6,1.5,0.5,2.1,0l35.2-36.8c0.6-0.6,0.5-1.5,0-2.1l-1.3-1.3c-0.6-0.6-1.5-0.5-2.1,0c0.6-0.7,1-1.1,1-1.1
		c-2.8-7.3-12.3-14.6-20.5-9.2c-8.2,5.3-14.1,20.7-14.1,20.7c-0.9-2.3-12.4-13.7-15.7-10.3c-0.9,0.9-2.3,2.4-3.9,4.1l-15.4-11.5
		c2.6-5.4,3.4-9.1,3.4-9.1c-8.7-5.2-17-9.6-23.5-13c0.5-0.3,1-0.5,1.5-0.7c8.3-34.1,9.9-59.7,9.5-76.6c3.9,2.7,8.6,6,14.1,10.5
		c0,0,3.4-1.9,6.7-5.6c6.6,3.2,17.4,8.3,19.2,7.4c1.1-0.5,5.8-1.4,11.7-2.6c2.1-0.4,4.3-0.9,6.5-1.5c0.3,0.8,0.5,1.7,0.9,2.4
		c2.5,5.9,17.9,1.5,17.9,1.5c0.3,0.5,2.9,0.3,5.4-0.2c0,0,0,0,0,0s0,0,0,0c1.7-0.4,3.4-0.8,4.2-1.2
		C1154.4,720.7,1153.8,718.1,1153.6,716.9z M1072.9,627.4c0.2,0.2,0.2,0.3,0.2,0.3C1073,627.6,1072.9,627.5,1072.9,627.4z
		 M1087.2,584.5L1087.2,584.5L1087.2,584.5L1087.2,584.5z M1057.7,619.5c-1.9,0.2-3.6,0.9-5,2.1
		C1054,620.1,1055.7,619.3,1057.7,619.5z M940.7,805.1c-0.1,0.5-0.2,1-0.3,1.5L940.7,805.1z M940.1,808.6c-0.2,1.1-0.4,2.2-0.6,3.4
		L940.1,808.6z M939.2,813.4c-0.1,0.8-0.3,1.6-0.4,2.4L939.2,813.4z M938.6,816.9c-0.1,0.8-0.3,1.7-0.5,2.5L938.6,816.9z
		 M937.8,821.1c-0.2,1-0.4,2.1-0.6,3.1L937.8,821.1z M932.7,849.1c0,0.2-0.1,0.3-0.1,0.5L932.7,849.1z M936.5,828.5
		c-0.2,1.3-0.5,2.5-0.7,3.8L936.5,828.5z M935.6,833.4c-0.1,0.4-0.2,0.9-0.2,1.3L935.6,833.4z M935.3,834.9c-0.4,1.9-0.7,3.8-1,5.5
		L935.3,834.9z M934.1,841.6c-0.1,0.3-0.1,0.6-0.2,0.9L934.1,841.6z M933.3,846.1c-0.1,0.4-0.2,0.9-0.2,1.3L933.3,846.1z M932.9,848
		c0,0.2-0.1,0.4-0.1,0.5L932.9,848z M1129.8,832l-2.9,3.1C1127.8,834,1128.8,833,1129.8,832z M1123.3,838.8l-4.3,4.5
		C1120.3,841.9,1121.8,840.4,1123.3,838.8z M1112.9,849.6c0.6-0.7,1.3-1.4,2-2.1L1112.9,849.6z"/>
	<path fill="#FFFFFF" d="M880.4,172c0,0-13.4-7.5-8-24.1c2.8-8.8,1.3-16.4-0.7-21.6c2-1.7,2.7-4.3,2.7-4.3s5.4-2.9,3.6-8.9
		s-8.2-6.1-8.2-6.1s5.4-3.6,0-10c-5.4-6.4-11.1,0.4-11.1,0.4s2.1-7.1-6.8-8.6c-8.9-1.4-9.6,6.1-9.6,6.1s-0.4-8.2-10-8.2
		s-10.4,7.5-10.4,7.5s-1.4-8.8-10.7-6.6s-6.4,10.7-6.4,10.7s-3.9-6.4-12.9-3.6c-8.9,2.9-5.4,11.4-5.4,11.4s-6.4-5.4-13.6,0
		c-7.1,5.4-1.5,12.8-1.5,12.8s-6.7-1.9-11.3,4.8s2.1,12.1,2.1,12.1s-11.8-3.2-13.9,8.2s6.4,13.6,6.4,13.6s-9.3,1.1-8.6,10
		c0.7,8.9,10.4,8.2,10.4,8.2s-8.9,1.1-7.1,10s10.4,7.5,10.4,7.5s-6.4,7.1,0,13.2c6.4,6.1,14.3,0,14.3,0s-2.9,5.7,2.1,9.6
		s11.1,0,11.1,0c-1.8,13.9,12.1,9.3,12.1,9.3c10.4-3.2,12.9,8.2,12.9,8.2v0c0.1,1.6,0.2,3.4,0.3,5.2l0,0l-3.1,4.2h0l-2.4,3.3
		c0.2,1.6,0.5,3.2,0.7,4.8c-4.1,3.8-9.7,9.8-18.9,17.3c0,0,1.3,3.9,4.4,7.9c-5.9,8.3-17.9,25.5-23.6,34c-1.8,2.7-2.9,4.5-3.1,5
		c-0.6-0.2-1.1-0.5-1.7-0.7c-6-2.1-13.2,12.1-13.2,12.1c-0.6-0.2-2.2,2-3.5,4.1c0,0,0,0,0,0s0,0,0,0c-0.9,1.5-1.7,3.1-1.9,3.9
		c-0.6,2,1.7,3.4,2.7,4c1,0.7,1.7-0.4,1.7-0.4s-0.3,1.3,0.4,1.8s5.4,2.8,5.4,2.8s-0.9,2.3,0,2.9c1,0.7,6.6,4.5,7.5,3.1
		c0.9-1.4,3.7-5.7,3.7-5.7s5.7,2.3,6.8,0.6c1.1-1.7,2.5-4.5,5.1-10.8c2.6-6.2-2-10.7-2-10.7s-1.1-0.9-2.7-2.2l1,0.6
		c0.4-0.5,1.8-2.4,3.8-5.1c6.1-8.3,17.6-24.6,23-32.2c2,0.8,4.2,1.3,6.7,1.4c0,0,0-0.4,0.1-1.2c0.3,0.2,0.6,0.3,1,0.5
		c0.4,37.8-8.6,55.2-8.6,55.2s0.7,9.9,1.4,14.2c0.1,0.3,0.2,0.7,0.4,1.3c0.2,5.4,1.1,24,4.9,41.1c-10.1,2.6-23.8,6.5-23.4,8.5
		c0,0.1,0.1,0.4,0.1,0.7L785,405c-0.2-0.8-1-1.3-1.8-1.1l-1.8,0.4c-0.8,0.2-1.3,1-1.1,1.8l11.2,49.7c0.2,0.8,1,1.3,1.8,1.1l1.8-0.4
		c0.8-0.2,1.3-1,1.1-1.8l-0.6-2.6c0.6,2.5,0.9,4.1,0.9,4.1c3.1,0.7,6.7,0.5,10-0.7c-0.1,6.5,0.2,11.9,1.5,11.9c0,0,0.1,0,0.1,0
		c-0.8,0-1.5,0.7-1.5,1.5l0,1.9c0,0.8,0.7,1.5,1.5,1.5l50.9,0.4c0.8,0,1.5-0.7,1.5-1.5l0-1.9c0-0.8-0.7-1.5-1.5-1.5l-0.5,0
		c1.3,0,2,0,2,0c3.4-7,5.2-18.9-4.3-21.2s-24.8,3.9-24.8,3.9c1-2.2,1.5-18.4-3.3-18.4c-1.2,0-3.1,0-5.2,0l0.2-17
		c0.2-0.4,0.2-0.8,0.1-1.3c0-0.1-0.1-0.3-0.1-0.5l0.1-6.3l18.5-5.5c2.6-0.8,4.3-3.5,3.7-6.2l-0.4-1.7c3.8-0.8,7.8-1.6,11.7-2.4
		c0,0-6.3-36.5-7.6-45.4c0-0.5-0.1-1.1-0.1-1.6c1.6-0.5,4.4-3.2,4.4-3.2s3.6,2.5,4.3,1.5s2.9-6.8,2.1-8.2c-0.8-1.4-4.5-6.6-4.5-6.6
		s2-3.3,1.7-5.6c-0.3-2.3-4.9-6-8.2-7.1c-0.8-0.3-1.8-0.5-2.8-0.8c-7-47-20.3-67.4-20.3-67.4s-1.6-7.5,2.1-17.7s18.7-8.6,36.4-9.6
		s15.9-16.6,15.9-16.6s2.3-3.2,2.3-5.4c0-2.1-2.3-4.3-2.3-4.3l6-1.1l-1.1-7c8,2.1,9.1-5.9,6.4-12.9C889,165.1,880.4,172,880.4,172z
		 M785.3,406.2l-0.1-0.5C785.3,405.9,785.3,406.1,785.3,406.2z M790.6,429.6c0.3,1.5,0.7,3,1,4.4L790.6,429.6z M785.4,406.7
		c0,0.1,0.1,0.3,0.1,0.4L785.4,406.7z M785.7,407.9c0.4,2,1.1,4.8,1.8,8L785.7,407.9z M787.6,416.5c0.1,0.5,0.2,0.9,0.3,1.4
		L787.6,416.5z M788.1,418.6c0.1,0.5,0.2,1.1,0.4,1.6L788.1,418.6z M788.5,420.4c0.1,0.6,0.3,1.3,0.4,1.9L788.5,420.4z M789,422.8
		c0.2,0.9,0.4,1.9,0.6,2.8L789,422.8z M790,427.2c0.2,0.7,0.3,1.4,0.5,2L790,427.2z M791.8,435.1c0.5,2.2,1,4.3,1.4,6.3L791.8,435.1
		z M793.8,444.1c0.3,1.1,0.5,2.2,0.7,3.2L793.8,444.1z M794.7,447.9c0.1,0.5,0.2,1,0.3,1.5L794.7,447.9z M795.2,450.3
		c0.1,0.3,0.1,0.6,0.2,0.9L795.2,450.3z M809.9,467.3l-0.3,0C809.7,467.3,809.8,467.3,809.9,467.3z M812,467.3L812,467.3
		C812,467.3,812,467.3,812,467.3z M858.4,467.7l-0.8,0C857.9,467.7,858.1,467.7,858.4,467.7z M854,467.7l-4,0
		C851.5,467.6,852.8,467.6,854,467.7z M856.3,467.7l-1.7,0C855.3,467.7,855.8,467.7,856.3,467.7z M836.3,467.5l-5.1,0
		C832.9,467.5,834.6,467.5,836.3,467.5z M845.2,467.6l-1,0C844.6,467.6,844.9,467.6,845.2,467.6z M842.1,467.6l-4.4,0
		C839.2,467.5,840.7,467.6,842.1,467.6z M830.6,467.5l-1.5,0C829.6,467.5,830.1,467.5,830.6,467.5z M817.6,467.4c0.2,0,0.4,0,0.6,0
		L817.6,467.4z M819.3,467.4c0.4,0,0.7,0,1.1,0L819.3,467.4z M823.7,467.4c0.3,0,0.5,0,0.8,0L823.7,467.4z M812.3,431.8
		c-2.7-6-6.1-10.9-6.1-10.9c1,0.2,4.6-0.3,8.2-1.2l0.1,12.1C813.7,431.8,813,431.8,812.3,431.8z M814.9,168.9L814.9,168.9
		L814.9,168.9L814.9,168.9z M818.3,188.1c-0.1-0.1-0.2-0.2-0.3-0.2C818.2,188,818.3,188.1,818.3,188.1z M801.1,184.8
		c-1.7,0.7-3.2,1.9-4.2,3.5C797.8,186.4,799.2,185.2,801.1,184.8z"/>
	<path fill="#FFFFFF" d="M973.6,173c0.7,8.9,10.4,8.2,10.4,8.2s-8.9,1.1-7.1,10c1.8,8.9,10.4,7.5,10.4,7.5s-6.4,7.1,0,13.2
		s14.3,0,14.3,0s-2.9,5.7,2.1,9.6s11.1,0,11.1,0c-1.8,13.9,12.1,9.3,12.1,9.3c10.4-3.2,12.9,8.2,12.9,8.2v0c0.1,1.6,0.2,3.4,0.3,5.2
		l0,0l-3.1,4.2l0,0l-2.4,3.3c0.2,1.1,0.3,2.2,0.5,3.3c-4.3,3.6-10.3,9.5-20.2,16.8c0,0,1.1,3.8,3.8,7.8
		c-4.7,5.6-12.3,14.9-11.9,16.8c0.3,1.2-0.1,6-0.3,12c-0.1,2.1-0.1,4.3-0.1,6.6c-1.4,0.1-2.4,0.3-3,0.7c-2.1,1.6-7.2,10.3-6.8,12.4
		c0.3,2.2-0.5,8.1,1,12.5s4.7,3.5,4.7,3.5c0.9,2.5,4.8,1,4.8,1c0.6,1.2,6,0.8,6,0.8s1.2,4.2,2.3,3.9s6.6-3.3,6.9-4.9
		c0.3-1.6,0.8-8,0.8-8s3.7-1.3,4.9-3.2c1.2-1.9,0.1-7.7-1.7-10.7c-1.8-3-6.1-8.3-9.1-7.5c0,0,0,0,0,0c0.1-2,0.3-4.1,0.5-6.2
		c0.6-5.9,1.3-11.5,1.3-11.5c1.5-1.5,5.7-6.5,8.8-10.1c2,0.9,4.2,1.6,6.8,1.8c0,0,0-3.6,3.2-9c2.2,44.3-8.3,64.5-8.3,64.5
		s0.1,3.3,0.4,6.9c-2,5.6-8.8,24.1-14.4,40.9c0,0,1.5,2,4.3,4.2l-10.4,18.3c-3.9-2.6-7.3-4.7-7.3-4.7s-16,22.9-14.3,25.6l-2.8,1
		c-0.9,0.3-1.4,1.4-1,2.3c2.6,6.3,12,28.5,12.6,31.7c0.7,3.7,8.1,2.5,10,2.5s19.7,0,23,0s3.7-5,1.2-5c7.4-0.9,13.3-11.4,8.6-19.3
		c-6.9-11.5-24.9-6.4-27.3-5.6c2.8-1.2,13.3-15.4,8.4-20.4c-0.7-0.8-2.2-1.9-3.9-3.1l11.1-18.7c4.1,1.6,9.3,2.5,15.4,1.7
		c0,0,9.5-19.2,10-22.4c0-0.2,0-0.6,0-1c7.6,4.8,16.6,10.5,26.3,18.2l-4.7,4.4c-2.4-2.3-4.3-4.1-4.3-4.1s-24.5,25.8-22,28.1
		c0.2,0.2,0.6,0.6,1.2,1.1l-1.1-1c-0.6-0.6-1.5-0.5-2.1,0.1l-1.3,1.3c-0.6,0.6-0.5,1.5,0.1,2.1l36.9,35.1c0.6,0.6,1.5,0.5,2.1-0.1
		l1.3-1.3c0.6-0.6,0.5-1.5-0.1-2.1c0.7,0.6,1.1,1,1.1,1c7.3-2.8,14.5-12.4,9.2-20.5s-20.8-14.1-20.8-14.1
		c2.3-0.9,13.7-12.4,10.2-15.7c-0.9-0.9-2.4-2.3-4.1-3.9l15.4-14c2-1.9,2.3-5,0.7-7.2l-2.5-3.3c3.4-3.1,6.7-6.1,9.1-8
		c0,0-18.5-18.9-26.7-25.1c-1.1-17.1-3-31.7-5.3-44.1c2.4,0.4,4.8,0.7,7.2,1.1c3.2,0.5,5.3,0.8,5.8,0.7c0,0.6,0,1.2,0.1,1.8
		c0.6,6.4,16.5,7,16.5,7c0.1,0.6,2.7,1.2,5.2,1.5c0,0,0,0,0,0s0,0,0,0c1.8,0.2,3.5,0.3,4.4,0.1c2.1-0.3,2.4-3,2.6-4.1
		c0.2-1.2-1.1-1.4-1.1-1.4s1.4-0.3,1.5-1.1c0.1-0.8,0.3-6,0.3-6s2.4-0.1,2.6-1.2c0.2-1.2,1.3-7.9-0.3-8.2c-1.6-0.3-6.7-1-6.7-1
		s-0.3-6.1-2.3-6.5s-5.2-0.4-11.9-0.1c-6.7,0.2-8.9,6.3-8.9,6.3s-0.4,1.4-0.9,3.4l0.1-1.2c-0.6-0.2-2.9-0.7-6.2-1.4
		c-3.8-0.8-7.4-1.4-10.7-2c-7-29.6-15.6-42.8-15.6-42.8s-1.6-7.5,2.1-17.7s18.7-8.6,36.4-9.6s15.9-16.6,15.9-16.6s2.3-3.2,2.3-5.4
		c0-2.1-2.3-4.3-2.3-4.3l6-1.1l-1.1-7c8,2.1,9.1-5.9,6.4-12.9s-11.2,0-11.2,0s-13.4-7.5-8-24.1c2.8-8.8,1.3-16.4-0.7-21.6
		c2-1.7,2.7-4.3,2.7-4.3s5.4-2.9,3.6-8.9c-1.8-6.1-8.2-6.1-8.2-6.1s5.4-3.6,0-10c-5.4-6.4-11.1,0.4-11.1,0.4s2.1-7.1-6.8-8.6
		c-8.9-1.4-9.6,6.1-9.6,6.1s-0.4-8.2-10-8.2s-10.4,7.5-10.4,7.5s-1.4-8.8-10.7-6.6c-9.3,2.1-6.4,10.7-6.4,10.7s-3.9-6.4-12.9-3.6
		c-8.9,2.9-5.4,11.4-5.4,11.4s-6.4-5.4-13.6,0c-7.1,5.4-1.5,12.8-1.5,12.8s-6.7-1.9-11.3,4.8c-4.6,6.8,2.1,12.1,2.1,12.1
		s-11.8-3.2-13.9,8.2s6.4,13.6,6.4,13.6S972.9,164,973.6,173z M1073.4,450.3l-8.2-7.8C1068,445.1,1070.8,447.8,1073.4,450.3z
		 M1051.8,429.8l-0.5-0.5C1051.5,429.5,1051.6,429.7,1051.8,429.8z M1058.5,436.2l-5.5-5.2C1054.6,432.5,1056.5,434.3,1058.5,436.2z
		 M1080.6,457.1c0.1,0.1,0.2,0.2,0.3,0.3L1080.6,457.1z M1083,459.4C1083,459.4,1083,459.4,1083,459.4L1083,459.4z M1045.4,193.1
		c0.2,0.1,0.3,0.2,0.3,0.2C1045.6,193.2,1045.5,193.2,1045.4,193.1z M1046.4,147.8L1046.4,147.8L1046.4,147.8L1046.4,147.8z
		 M1028.5,190L1028.5,190c-1.7,0.7-3.2,1.9-4.2,3.5C1025.2,191.6,1026.6,190.3,1028.5,190z"/>
	<path fill="#FFFFFF" d="M404.8,740.8c0,0,0.6-3.8-0.6-5.8c-1.1-2-6.8-3.7-10.3-3.5c-3.4,0.2-9.9,1.4-10.8,4.4
		c-2.1-1.1-4.6-2.6-7-4.1c-5-3.1-9.8-6.2-9.8-6.2c-0.7-2-3.3-8-5.2-12.3c1.7-1.4,3.3-3.1,4.6-5.3c0,0-5.9-2.9-10.3-13.6
		c-2.3-5.6-4.3-10.2-6.8-12.8c-2.1-4.3-3.4-6.4-3.4-6.4s-1.6-7.5,2.1-17.7c3.8-10.2,18.7-8.6,36.4-9.6s15.9-16.6,15.9-16.6
		s2.3-3.2,2.3-5.4c0-2.1-2.3-4.3-2.3-4.3l6-1.1l-1.1-7c8,2.1,9.1-5.9,6.4-12.9c-2.7-7-11.2,0-11.2,0s-13.4-7.5-8-24.1
		c2.8-8.8,1.3-16.4-0.7-21.6c2-1.7,2.7-4.3,2.7-4.3s5.4-2.9,3.6-8.9c-1.8-6.1-8.2-6.1-8.2-6.1s5.4-3.6,0-10
		c-5.4-6.4-11.1,0.4-11.1,0.4s2.1-7.1-6.8-8.6c-8.9-1.4-9.6,6.1-9.6,6.1s-0.4-8.2-10-8.2s-10.4,7.5-10.4,7.5s-1.4-8.8-10.7-6.6
		c-9.3,2.1-6.4,10.7-6.4,10.7s-3.9-6.4-12.9-3.6c-8.9,2.9-5.4,11.4-5.4,11.4s-6.4-5.4-13.6,0c-7.1,5.4-1.5,12.8-1.5,12.8
		s-6.7-1.9-11.3,4.8c-4.6,6.8,2.1,12.1,2.1,12.1s-11.8-3.2-13.9,8.2s6.4,13.6,6.4,13.6s-9.3,1.1-8.6,10c0.7,8.9,10.4,8.2,10.4,8.2
		s-8.9,1.1-7.1,10c1.8,8.9,10.4,7.5,10.4,7.5s-6.4,7.1,0,13.2s14.3,0,14.3,0s-2.9,5.7,2.1,9.6c5,3.9,11.1,0,11.1,0
		c-1.8,13.9,12.1,9.3,12.1,9.3c10.4-3.2,12.9,8.2,12.9,8.2v0c0.1,1.6,0.2,3.4,0.3,5.2l0,0L329,672l0,0l-1.1,1.5
		c-5.3,0.4-11.2,8.4-27.4,19.7c0,0,1,3.8,3.6,7.9c-4.9,5.5-12.7,14.5-12.4,16.4c0.2,1.2-0.3,6-0.7,12c-0.1,2.1-0.3,4.4-0.3,6.7
		c-0.9,0-1.7,0.1-2.6,0.2c-6.3,0.9-6.3,16.8-6.3,16.8c-0.6,0.1-1.1,2.7-1.3,5.3c0,0,0,0.1,0,0.1s0,0,0,0c-0.1,1.8-0.1,3.5,0,4.4
		c0.4,2.1,3.1,2.2,4.2,2.4c1.2,0.1,1.3-1.1,1.3-1.1s0.3,1.3,1.2,1.4s6,0,6,0s0.2,2.4,1.4,2.6s7.9,1,8.1-0.6s0.7-6.8,0.7-6.8
		s6.1-0.5,6.4-2.5c0.3-2,0.1-5.2-0.3-11.9c-0.5-6.7-6.6-8.6-6.6-8.6s-0.6-0.2-1.6-0.4c0.2-2.1,0.4-4.4,0.7-6.8
		c0.7-5.9,1.6-11.4,1.6-11.4c1.5-1.4,5.9-6.3,9.1-9.8c1.9,1,4.2,1.7,6.7,2c0,0,0.2-6.5,8.1-15c0.4-0.5,0.9-0.9,1.3-1.4
		c4.2,50.5-7.7,73.6-7.7,73.6s-0.2,1.9-0.4,4.5c-7.8,12.8-22.4,25.3-22.4,25.3c0.7,1.6,1.5,3.2,2.4,4.7l-11.5,11
		c-1.9-2.7-3.4-4.8-3.4-4.8s-28.9,20.6-27,23.4c0,0,0,0.1,0.1,0.1c-0.5-0.7-1.4-0.8-2.1-0.3l-1.5,1.1c-0.7,0.5-0.8,1.4-0.3,2.1
		l29.6,41.5c0.5,0.7,1.4,0.8,2.1,0.3l1.5-1.1c0.7-0.5,0.8-1.4,0.3-2.1l-1.2-1.7c1.3,1.8,2.1,2.9,2.1,2.9c7.7-1.3,16.6-9.3,12.9-18.4
		c-3.7-9-17.7-17.8-17.7-17.8c2.4-0.5,15.8-9.6,13-13.5c-0.7-1-1.9-2.7-3.3-4.6l11.5-10.4c6.1,7.9,12,11.5,12,11.5
		c3.3-2.7,6.4-5.3,9.3-7.9c0.9,4.2,1.6,8.3,2.2,11.9c0,0,4,0.4,10,0.8l0.2,26c-2.6,0-4.5,0-4.5,0s-1.7,35.5,1.6,35.5
		c0.7,0,3.6,0,7.7-0.1l-7.6,0.1c-0.8,0-1.5,0.7-1.5,1.5l0,1.9c0,0.8,0.7,1.5,1.5,1.5l50.9-0.4c0.8,0,1.5-0.7,1.5-1.5l0-1.9
		c0-0.8-0.7-1.5-1.5-1.5c1,0,1.5,0,1.5,0c3.3-7.1,1.9-19-7.6-21.1c-9.5-2.2-24.7,4.3-24.7,4.3c1-2.2,1.2-18.4-3.5-18.4
		c-1.2,0-3.1,0-5.2,0l0.4-25.6c4.5,0,9.3-0.1,14-0.5c0,0,6.2-42.8,6.2-52.4c-0.8-13.5-2.2-25.4-3.9-36c1.6,0.9,3.5,1.9,5.6,3.1
		c2.2,1.2,4.6,2.4,7.1,3.6l1.1-1.8c-1.1,2.1-2,4.1-1.8,5.1c0.4,2.6,5.7,11.1,7.8,11.8c2.1,0.7,7,4.2,11.5,5c4.5,0.7,5.3-2.6,5.3-2.6
		c2.6,0.3,3.1-3.8,3.1-3.8c1.3,0,3.4-4.9,3.4-4.9s4.2,0.9,4.5-0.3c0.3-1.2,0.1-7.4-1.1-8.4C410.2,744.2,404.8,740.8,404.8,740.8z
		 M337.5,616.6c0.2,0.1,0.3,0.2,0.3,0.2C337.8,616.8,337.6,616.7,337.5,616.6z M338.6,571.4L338.6,571.4L338.6,571.4L338.6,571.4z
		 M320.7,613.6L320.7,613.6c-1.7,0.7-3.2,1.9-4.2,3.5C317.4,615.2,318.8,613.9,320.7,613.6z M287.2,872.1l-2.6-3.7
		C285.5,869.8,286.4,871,287.2,872.1z M269.5,847.3c0,0,0.1,0.1,0.1,0.1L269.5,847.3z M271.5,850.1
		C271.5,850.1,271.5,850.2,271.5,850.1L271.5,850.1z M274.6,854.4c0.2,0.3,0.5,0.7,0.7,1L274.6,854.4z M279.2,861
		c1.2,1.7,2.3,3.3,3.4,4.8L279.2,861z M283.2,866.5c0.4,0.6,0.8,1.1,1.2,1.7L283.2,866.5z M387,888.1l-0.8,0
		C386.5,888.1,386.8,888.1,387,888.1z M387.7,888.1l-0.1,0C387.6,888.1,387.6,888.1,387.7,888.1z M384.5,888.1l-2.8,0
		C382.7,888.1,383.6,888.1,384.5,888.1z M385.9,888.1l-1,0C385.3,888.1,385.6,888.1,385.9,888.1z M377.1,888.2l-14.5,0.1
		C367.6,888.3,372.7,888.2,377.1,888.2z M380.4,888.2l-2.3,0C378.9,888.2,379.6,888.2,380.4,888.2z M361.5,888.3l-4.3,0
		C358.6,888.3,360.1,888.3,361.5,888.3z M356.5,888.3l-11.9,0.1C348,888.4,352.1,888.4,356.5,888.3z"/>
	<path fill="#FFFFFF" d="M879.4,604.8c-2.7-7-11.2,0-11.2,0s-13.4-7.5-8-24.1c2.8-8.8,1.3-16.4-0.7-21.6c2-1.7,2.7-4.3,2.7-4.3
		s5.4-2.9,3.6-8.9c-1.8-6.1-8.2-6.1-8.2-6.1s5.4-3.6,0-10c-5.4-6.4-11.1,0.4-11.1,0.4s2.1-7.1-6.8-8.6c-8.9-1.4-9.6,6.1-9.6,6.1
		s-0.4-8.2-10-8.2s-10.4,7.5-10.4,7.5s-1.4-8.8-10.7-6.6c-9.3,2.1-6.4,10.7-6.4,10.7s-3.9-6.4-12.9-3.6s-5.4,11.4-5.4,11.4
		s-6.4-5.4-13.6,0c-7.1,5.4-1.5,12.8-1.5,12.8s-6.7-1.9-11.3,4.8s2.1,12.1,2.1,12.1s-11.8-3.2-13.9,8.2c-2.1,11.4,6.4,13.6,6.4,13.6
		s-9.3,1.1-8.6,10c0.7,8.9,10.4,8.2,10.4,8.2s-8.9,1.1-7.1,10c1.8,8.9,10.4,7.5,10.4,7.5s-6.4,7.1,0,13.2c6.4,6.1,14.3,0,14.3,0
		s-2.9,5.7,2.1,9.6c5,3.9,11.1,0,11.1,0c-1.8,13.9,12.1,9.3,12.1,9.3c10.4-3.2,12.9,8.2,12.9,8.2v0c0.1,1.6,0.2,3.4,0.3,5.2l0,0
		l-3.1,4.2l0,0l-2.4,3.3c1.8,12,2.7,22.7,3.1,32.3c-0.5,2.3-1,4.8-1.7,7.5c0,0,0.7,0.5,1.8,1.1c0,35.8-8.6,52.4-8.6,52.4
		s-0.5,11.5,0,15.8c1.1,8.7,0,26.3,0.5,36.8c0,0,2,0.8,5.3,1.7L791,847c-3.2,0-5.6,0-5.6,0s-4.3,35.5-0.9,35.5c0,0,0.1,0,0.1,0
		c-0.8,0-1.5,0.7-1.5,1.5l0,1.9c0,0.8,0.7,1.5,1.5,1.5l50.9,0.4c0.8,0,1.5-0.7,1.5-1.5l0-0.3l38.8,0.3c0.8,0,1.5-0.7,1.5-1.5l0-1.9
		c0-0.8-0.7-1.5-1.5-1.5l-0.5,0c1.3,0,2,0,2,0c3.4-7,2.2-18.9-7.3-21.2c-9.5-2.3-24.8,3.9-24.8,3.9c1-2.2,1.5-18.4-3.3-18.4
		c-1.3,0-3.3,0-5.7,0l-2.1-19.1c5.7-1.8,9-3.8,9-3.8c-3.2-14.3-6.8-26.8-9.1-34.1c0.6-1.9,1.2-3.7,1.6-5.2c1.7-0.5,4.4-2.6,4.4-2.6
		s3.3,2.9,4.1,2c0.8-0.9,3.7-6.4,3.1-7.9c-0.6-1.5-3.7-7.1-3.7-7.1s2.4-3.1,2.3-5.3c0-2.3-4.1-6.5-7.3-8c-1.1-0.5-2.5-1.1-4.1-1.5
		c-6.6-51.3-21.2-73.5-21.2-73.5s-1.6-7.5,2.1-17.7c3.8-10.2,18.7-8.6,36.4-9.6c17.7-1.1,15.9-16.6,15.9-16.6s2.3-3.2,2.3-5.4
		c0-2.1-2.3-4.3-2.3-4.3l6-1.1l-1.1-7C881,619.8,882.1,611.7,879.4,604.8z M796.8,882.6l-1.1,0C796.1,882.6,796.5,882.6,796.8,882.6
		z M794.6,882.6l-0.5,0C794.2,882.6,794.4,882.6,794.6,882.6z M786.3,882.5l-0.3,0C786.1,882.5,786.2,882.5,786.3,882.5z
		 M788.5,882.5L788.5,882.5C788.4,882.5,788.4,882.5,788.5,882.5z M800.2,882.6c0.3,0,0.5,0,0.8,0L800.2,882.6z M805.5,882.7
		c0.5,0,1,0,1.5,0L805.5,882.7z M807.7,882.7c1.7,0,3.4,0,5,0L807.7,882.7z M814.2,882.7c1.5,0,2.9,0,4.3,0L814.2,882.7z
		 M820.7,882.8c0.3,0,0.6,0,0.9,0L820.7,882.8z M870.8,881.3l-4,0C868.3,881.3,869.6,881.3,870.8,881.3z M875.2,881.4l-0.8,0
		C874.7,881.4,874.9,881.4,875.2,881.4z M873.1,881.4l-1.7,0C872,881.4,872.6,881.4,873.1,881.4z M840.5,881.1c0.3,0,0.5,0,0.8,0
		L840.5,881.1z M845.8,881.2c0.5,0,1,0,1.5,0L845.8,881.2z M848,881.2c1.7,0,3.4,0,5.1,0L848,881.2z M854.5,881.2c1.5,0,2.9,0,4.4,0
		L854.5,881.2z M861,881.3c0.3,0,0.7,0,1,0L861,881.3z M827.6,845.5c-3.3,0-5.9,0-5.9,0s-0.1,7.6,0.2,15.8c-8.3,0.8-17,4.3-17,4.3
		c1-2.2,5.5-18.4,0.7-18.4c-1.4,0-3.6,0-6.2,0l4.1-18.5c4.7,0.7,10.3,1.2,16.2,0.7c0,0,0,0,0-0.1c1.9-0.1,3.7-0.3,5.4-0.6
		L827.6,845.5z M806.7,575.4L806.7,575.4L806.7,575.4L806.7,575.4z M806,620.8c-0.1-0.1-0.2-0.2-0.3-0.2
		C805.9,620.8,806,620.8,806,620.8z M788.8,617.5c-1.7,0.7-3.2,1.9-4.2,3.5C785.5,619.2,786.9,617.9,788.8,617.5z"/>
	<g>
		<g>
			<g>
				<path fill="#FDC382" d="M287.8,296.7c2.4-2.3,8.8-11.8,8.8-11.8l-8.2-8.7c0,0-17,19.1-16.5,21.9c0.3,1.7,12.4,9.7,21.4,15.3
					l5.3-9C293.3,300.5,287.8,296.7,287.8,296.7z"/>
				<path fill="#D1D3D4" d="M308,311.6c-1.5-1.4-5.4-4.3-9.4-7.2l-5.3,9c5.2,3.3,9.4,5.8,9.4,5.8L308,311.6z"/>
				<path fill="#FFF200" d="M314.4,255.5c-8.4-7.5-11.4,1.8-33.4,17c0,0,4.1,16.5,19,18.2c0,0,0.2-6.5,8.1-15
					C316,267.2,321.2,261.6,314.4,255.5z"/>
				<path fill="#E6E7E8" d="M305.7,309.7c0.9-3,7.7-3.7,11.2-3.7s9,2.2,10,4.3c1,2.1,0.1,5.8,0.1,5.8s5.1,3.8,6.3,4.9
					s0.8,7.3,0.5,8.5s-4.5-0.1-4.5-0.1s-2.5,4.8-3.8,4.6c0,0-0.8,4-3.4,3.5c0,0-1,3.2-5.4,2.1c-4.4-1.1-9.1-5-11.1-5.9
					c-2-0.9-6.6-9.8-6.8-12.4S305.7,309.7,305.7,309.7z"/>
			</g>
			<path fill="#BCBEC0" d="M252.8,422.5l-2.9,1.1c-1,0.4-1.4,1.4-1,2.4c2.8,6.6,12.6,30,13.3,33.4c0.8,3.9,8.5,2.6,10.5,2.6
				s20.8,0,24.3,0s3.9-5.2,1.3-5.2S252.8,422.5,252.8,422.5z"/>
			<polygon fill="#FDC382" points="306.4,388.5 280.3,407.2 285.2,414.3 311,396.7 			"/>
			<path fill="#FFF200" d="M281,400.6c0,0,8.3,13.2,10.9,17.2c2.5,4-11.3,12.4-13.8,12.7c0,0,21.2-7.1,29,5.9c5,8.4-1.2,19.4-9,20.3
				c0,0-29.8,2.4-31.8-1.8c-5.5-11.6-12.6-31-13.5-32.4C251,419.6,281,400.6,281,400.6z"/>
			<polygon fill="#FDC382" points="347,401.7 362.6,429.7 370.2,425.7 355.6,398 			"/>
			<path fill="#8D796E" d="M344.4,357c0,0,13.5,18.6,22,37.9c0,0-8.6,11.9-26.8,11.2c0,0-11.1-16.1-12-19.4
				C326.8,383.4,330.9,366.3,344.4,357z"/>
			<path fill="#9B8579" d="M301.7,347.8c0,0,0.7,9.9,1.4,14.2c0.7,4.3-5.4,25.7-10,32.9c0,0,14.3,14.2,31.4,10.6
				c0,0,16.8-46.1,24.8-51.7L301.7,347.8z"/>
			<g>
				<path fill="#FDC382" d="M367.6,127.1c0,0,10.2,12.3,4.8,28.9s8,24.1,8,24.1s8.6-7,11.2,0c2.7,7,1.6,15-6.4,12.9l1.1,7l-6,1.1
					c0,0,2.3,2.1,2.3,4.3s-2.3,5.4-2.3,5.4s1.8,15.5-15.9,16.6c-17.7,1.1-32.7-0.5-36.4,9.6c-3.7,10.2-2.1,17.7-2.1,17.7H313
					c0,0-0.5-12.9-1.1-16.1s2.7-13.4,2.7-13.4s-13.4,0.5-18.2-17.1s11.8-19.3,22-11.8C318.3,196.2,295.3,125.5,367.6,127.1z"/>
				<path fill="#726658" d="M312.3,242c0,0-2.5-11.5-12.9-8.2c0,0-13.9,4.6-12.1-9.3c0,0-6.1,3.9-11.1,0c-5-3.9-2.1-9.6-2.1-9.6
					s-7.9,6.1-14.3,0c-6.4-6.1,0-13.2,0-13.2s-8.6,1.4-10.4-7.5c-1.8-8.9,7.1-10,7.1-10s-9.6,0.7-10.4-8.2c-0.7-8.9,8.6-10,8.6-10
					s-8.6-2.1-6.4-13.6s13.9-8.2,13.9-8.2s-6.8-5.4-2.1-12.1c4.6-6.8,11.3-4.8,11.3-4.8s-5.6-7.5,1.5-12.8c7.1-5.4,13.6,0,13.6,0
					s-3.6-8.6,5.4-11.4s12.9,3.6,12.9,3.6s-2.9-8.6,6.4-10.7s10.7,6.6,10.7,6.6s0.7-7.5,10.4-7.5s10,8.2,10,8.2s0.7-7.5,9.6-6.1
					c8.9,1.4,6.8,8.6,6.8,8.6s5.7-6.8,11.1-0.4c5.4,6.4,0,10,0,10s6.4,0,8.2,6.1c1.8,6.1-3.6,8.9-3.6,8.9s-1.8,6.8-8.2,5.7
					c-6.4-1.1-8.9-5.4-8.9-5.4s-0.4,4.3-6.4,7.1s-9.3-4.6-9.3-4.6s1.8,4.6-2.1,7.9c-3.9,3.2-9.3-1.4-9.3-1.4s3.6,4.3-0.7,8.9
					c-4.3,4.6-10.4,2.4-10.4,2.4s2.5,3.3,1.8,7.6c-0.7,4.3-5.4,5.2-5.4,5.2s4.3-0.3,5,6.4c0.7,6.6-5.5,7-5.5,7s5.1,0.3,5.9,7.8
					c0.7,7.5-2.5,11.4-2.5,11.4s-6.9-5.2-17.2-3.3c-10.3,1.9-5.3,30.8,13.4,32.2l-2.3,9.1L312.3,242z"/>
				<path fill="#8DC63F" d="M312.6,247.1l13.2,7.5c0,0,19.3,29.5,23.6,99.1c0,0-28.4,7.5-47.7-5.9c0,0,15-28.9,5.4-93.2L312.6,247.1
					z"/>
				<g>
					<g>
						<path fill="#F1F2F2" d="M355.7,164.6c-8.6,0-12.7,5.7-12.4,10.9c0.3,5.2,4.4,13,12.4,13S366,164.6,355.7,164.6z"/>
						<ellipse fill="#414042" cx="358.4" cy="176.7" rx="3.3" ry="4.3"/>
						<ellipse fill="#FFFFFF" cx="357.3" cy="174.8" rx="1.1" ry="1.3"/>
						<path fill="#414042" d="M343.4,176.6c0,0-0.3-5.1,4.6-8c4.9-2.8,10.8-3.1,14.6-0.8c0,0-2.6-2.8-6.9-3.2
							C351.4,164.2,341.8,167,343.4,176.6z"/>
					</g>
					<g>
						<path fill="#414042" d="M339.4,159.3c-0.2,0-0.4,0-0.5-0.1c-0.5-0.3-0.7-1-0.4-1.5c0.1-0.2,3-4.9,8.4-6.3
							c3.5-0.9,7.1-0.2,10.9,2c0.5,0.3,0.7,1,0.4,1.5c-0.3,0.5-1,0.7-1.5,0.4c-10.4-6.1-16.1,3.2-16.3,3.6
							C340.2,159.1,339.8,159.3,339.4,159.3z"/>
					</g>
				</g>
				<ellipse fill="#F89F76" cx="349.8" cy="194.8" rx="8.6" ry="3.9"/>
				<path fill="#F4806D" d="M380.3,201.1c0,0-6.6,1.6-10.2-2.3C370.1,198.7,375,206.5,380.3,201.1z"/>
				<path fill="#F9ED32" d="M325.8,254.6l-13.2-7.5l-3.1,4.2c4.1,2.6,11.4,6.5,18.5,7.1C326.7,255.9,325.8,254.6,325.8,254.6z"/>
			</g>
			<path fill="#FFF200" d="M356.2,428.3c0,0,14-6.8,18.3-8.9s11,12.7,11.1,15.1c0,0,11-12.3,20.5-14.5s15.9,8,15.9,15.8
				c0,0-44.2,21.4-47.3,22.9C371.6,460.2,356.2,428.3,356.2,428.3z"/>
			<path fill="#BCBEC0" d="M422.7,440.9l-45.8,22.2c-0.7,0.4-1.6,0-2-0.7l-0.8-1.7c-0.4-0.7,0-1.6,0.7-2l45.8-22.2
				c0.7-0.4,1.6,0,2,0.7l0.8,1.7C423.8,439.7,423.5,440.5,422.7,440.9z"/>
			<g>
				<path fill="#FDC382" d="M351.8,290.4c-1.9-2.8-10.1-10.7-10.1-10.7l-10,6.5c0,0,15.9,20.1,18.7,20.1c1.8,0,11.7-10.6,18.8-18.4
					l-7.9-6.8C356.6,285.7,351.8,290.4,351.8,290.4z"/>
				<path fill="#D1D3D4" d="M370.1,273.2c-1.6,1.2-5.2,4.5-8.7,8l7.9,6.8c4.2-4.6,7.4-8.2,7.4-8.2L370.1,273.2z"/>
				<path fill="#FFF200" d="M315.9,257.1c-8.9,7-0.2,11.5,11,35.8c0,0,16.9-1.2,21.2-15.5c0,0-6.4-1.3-13.4-10.6
					C327.7,257.5,323,251.5,315.9,257.1z"/>
				<path fill="#E6E7E8" d="M367.7,275.1c-2.8-1.4-2.3-8.2-1.7-11.7c0.7-3.5,3.7-8.5,5.9-9.1c2.2-0.6,5.8,0.9,5.8,0.9s4.7-4.4,6-5.4
					c1.3-1,7.3,0.5,8.4,1s-0.9,4.4-0.9,4.4s4.3,3.3,3.9,4.6c0,0,3.8,1.5,2.9,4c0,0,3,1.5,1.2,5.7s-6.5,8.1-7.7,9.9
					s-10.8,4.8-13.4,4.6C375.4,283.9,367.7,275.1,367.7,275.1z"/>
			</g>
		</g>
		<g>
			<g>
				<polygon fill="#FDC382" points="604.3,399.1 608.6,430.8 617.2,429.9 613.7,398.8 				"/>
				<path fill="#FFF200" d="M602.1,426.5c0,0,15.6,0.1,20.3,0.2c4.7,0,4.3,16.2,3.3,18.4c0,0,15.3-6.2,24.8-3.9
					c9.5,2.3,10.7,14.2,7.3,21.2c0,0-49.1-0.4-52.5-0.4S602.1,426.5,602.1,426.5z"/>
				<path fill="#BCBEC0" d="M656.3,467.2l-50.9-0.4c-0.8,0-1.5-0.7-1.5-1.5l0-1.9c0-0.8,0.7-1.5,1.5-1.5l50.9,0.4
					c0.8,0,1.5,0.7,1.5,1.5l0,1.9C657.8,466.6,657.1,467.2,656.3,467.2z"/>
			</g>
			<path fill="#FDC382" d="M567.2,389.5c0,0-7.9,8.9-10.2,11.2c-1.4,1.5-13.8,1.7-13.8,1.7l0.8,8.8c0,0,14.7,0.2,16.5-1.7
				c1.8-1.9,13-13,13-13L567.2,389.5z"/>
			<g>
				<path fill="#FFF200" d="M546.3,397.3c0,0,1.9,15.5,2.4,20.2c0.6,4.7-15.5,6.3-17.9,5.6c0,0,8.1,14.4,7,24.1s-12.7,12.5-20.2,9.9
					c0,0-5.9-48.8-6.3-52.2C511,401.6,546.3,397.3,546.3,397.3z"/>
				<path fill="#BCBEC0" d="M512.7,456.2l-6.1-50.6c-0.1-0.8,0.5-1.6,1.3-1.7l1.8-0.2c0.8-0.1,1.6,0.5,1.7,1.3l6.1,50.6
					c0.1,0.8-0.5,1.6-1.3,1.7l-1.8,0.2C513.5,457.6,512.8,457,512.7,456.2z"/>
			</g>
			<path fill="#D1D3D4" d="M539.2,322.4l10.6,1.3c0.2-2.4,0.5-5.3,0.8-8.2l-11-1.1C539.5,316.9,539.3,319.6,539.2,322.4z"/>
			<path fill="#FDC382" d="M564.7,290.5l-8.2-8.7c0,0-16.7,17.9-16.2,20.7c0.2,1.2-0.3,6-0.7,12l11,1.1c0.7-5.9,1.6-11.4,1.6-11.4
				C554.7,301.8,564.7,290.5,564.7,290.5z"/>
			<path fill="#FFF200" d="M582.4,261.1c-8.4-7.5-11.4,1.8-33.4,17c0,0,4.1,16.5,19,18.2c0,0,0.2-6.5,8.1-15
				C584.1,272.8,589.2,267.2,582.4,261.1z"/>
			<path fill="#8D796E" d="M612.4,362.6c0,0,6.1,18.3,11.3,41c0,0-11.8,7.3-30,6.5c0,0-5.1-19.8-6-23
				C586.8,383.9,598.9,371.9,612.4,362.6z"/>
			<path fill="#9B8579" d="M569.8,353.5c0,0,0.9,9.2-1.1,13.1c-2.5,5-10.7,15.9-15.4,23c0,0,13.4,18,29.3,16.7
				c0,0,26.7-41.2,34.8-46.9L569.8,353.5z"/>
			<g>
				<path fill="#FDC382" d="M635.7,132.7c0,0,10.2,12.3,4.8,28.9c-5.4,16.6,8,24.1,8,24.1s8.6-7,11.2,0c2.7,7,1.6,15-6.4,12.9l1.1,7
					l-6,1.1c0,0,2.3,2.1,2.3,4.3s-2.3,5.4-2.3,5.4s1.8,15.5-15.9,16.6c-17.7,1.1-32.7-0.5-36.4,9.6c-3.7,10.2-2.1,17.7-2.1,17.7H581
					c0,0-0.5-12.9-1.1-16.1c-0.5-3.2,2.7-13.4,2.7-13.4s-13.4,0.5-18.2-17.1c-4.8-17.7,11.8-19.3,22-11.8
					C586.4,201.8,563.3,131.1,635.7,132.7z"/>
				<path fill="#726658" d="M580.3,247.6c0,0-2.5-11.5-12.9-8.2c0,0-13.9,4.6-12.1-9.3c0,0-6.1,3.9-11.1,0c-5-3.9-2.1-9.6-2.1-9.6
					s-7.9,6.1-14.3,0c-6.4-6.1,0-13.2,0-13.2s-8.6,1.4-10.4-7.5s7.1-10,7.1-10s-9.6,0.7-10.4-8.2s8.6-10,8.6-10s-8.6-2.1-6.4-13.6
					c2.1-11.4,13.9-8.2,13.9-8.2s-6.8-5.4-2.1-12.1c4.6-6.8,11.3-4.8,11.3-4.8s-5.6-7.5,1.5-12.8c7.1-5.4,13.6,0,13.6,0
					s-3.6-8.6,5.4-11.4c8.9-2.9,12.9,3.6,12.9,3.6s-2.9-8.6,6.4-10.7c9.3-2.1,10.7,6.6,10.7,6.6s0.7-7.5,10.4-7.5s10,8.2,10,8.2
					s0.7-7.5,9.6-6.1c8.9,1.4,6.8,8.6,6.8,8.6s5.7-6.8,11.1-0.4c5.4,6.4,0,10,0,10s6.4,0,8.2,6.1c1.8,6.1-3.6,8.9-3.6,8.9
					s-1.8,6.8-8.2,5.7c-6.4-1.1-8.9-5.4-8.9-5.4s-0.4,4.3-6.4,7.1c-6.1,2.9-9.3-4.6-9.3-4.6s1.8,4.6-2.1,7.9
					c-3.9,3.2-9.3-1.4-9.3-1.4s3.6,4.3-0.7,8.9c-4.3,4.6-10.4,2.4-10.4,2.4s2.5,3.3,1.8,7.6s-5.4,5.2-5.4,5.2s4.3-0.3,5,6.4
					c0.7,6.6-5.5,7-5.5,7s5.1,0.3,5.9,7.8c0.7,7.5-2.5,11.4-2.5,11.4s-6.9-5.2-17.2-3.3c-10.3,1.9-5.3,30.8,13.4,32.2l-2.3,9.1
					L580.3,247.6z"/>
				<path fill="#8DC63F" d="M580.7,252.7l13.2,7.5c0,0,19.3,29.5,23.6,99.1c0,0-28.4,7.5-47.7-5.9c0,0,15-28.9,5.4-93.2L580.7,252.7
					z"/>
				<g>
					<g>
						<path fill="#F1F2F2" d="M623.7,170.2c-8.6,0-12.7,5.7-12.4,10.9c0.3,5.2,4.4,13,12.4,13C631.7,194.2,634.1,170.2,623.7,170.2z
							"/>
						<ellipse fill="#414042" cx="626.4" cy="182.3" rx="3.3" ry="4.3"/>
						<ellipse fill="#FFFFFF" cx="625.3" cy="180.4" rx="1.1" ry="1.3"/>
						<path fill="#414042" d="M611.4,182.2c0,0-0.3-5.1,4.6-8c4.9-2.8,10.8-3.1,14.6-0.8c0,0-2.6-2.8-6.9-3.2
							C619.4,169.8,609.8,172.6,611.4,182.2z"/>
					</g>
					<g>
						<path fill="#414042" d="M607.5,164.9c-0.2,0-0.4,0-0.5-0.1c-0.5-0.3-0.7-1-0.4-1.5c0.1-0.2,3-4.9,8.4-6.3
							c3.5-0.9,7.1-0.2,10.9,2c0.5,0.3,0.7,1,0.4,1.5c-0.3,0.5-1,0.7-1.5,0.4c-10.4-6.1-16.1,3.2-16.3,3.6
							C608.2,164.7,607.9,164.9,607.5,164.9z"/>
					</g>
				</g>
				<ellipse fill="#F89F76" cx="617.8" cy="200.4" rx="8.6" ry="3.9"/>
				<path fill="#F4806D" d="M648.4,206.7c0,0-6.6,1.6-10.2-2.3C638.2,204.3,643,212.1,648.4,206.7z"/>
				<path fill="#F9ED32" d="M593.9,260.2l-13.2-7.5l-3.1,4.2c4.1,2.6,11.4,6.5,18.5,7.1C594.7,261.5,593.9,260.2,593.9,260.2z"/>
			</g>
			<g>
				<path fill="#FDC382" d="M612.5,304.2c-1-3.2-6.6-13.2-6.6-13.2l-11.4,3.4c0,0,9.4,23.8,12.1,24.6c1.7,0.5,14.3-6.8,23.3-12.2
					l-5.6-8.8C618.4,301,612.5,304.2,612.5,304.2z"/>
				<path fill="#D1D3D4" d="M634.9,292.9c-1.9,0.7-6.3,2.9-10.7,5.1l5.6,8.8c5.3-3.2,9.4-5.8,9.4-5.8L634.9,292.9z"/>
				<path fill="#FFF200" d="M587.6,261.9c-10.5,4.1-3.5,11,0.2,37.4c0,0,16.5,3.7,24.8-8.7c0,0-5.7-3.1-9.8-14
					C598.8,265.7,596.1,258.6,587.6,261.9z"/>
				<path fill="#E6E7E8" d="M632.1,294c-2.3-2.2,0.1-8.5,1.8-11.6s6-7,8.3-7s5.2,2.5,5.2,2.5s5.7-2.9,7.3-3.4
					c1.5-0.5,6.9,2.6,7.8,3.4c0.9,0.8-2.1,4-2.1,4s3.1,4.4,2.4,5.5c0,0,3.2,2.5,1.6,4.6c0,0,2.4,2.3-0.5,5.8
					c-3,3.5-8.5,5.8-10.2,7.2s-11.7,1.5-14.2,0.5S632.1,294,632.1,294z"/>
			</g>
			<g>
				<path fill="#E6E7E8" d="M551.5,322.7c0,0,6.1,1.9,6.6,8.6c0.5,6.7,0.6,9.9,0.3,11.9c-0.3,2-6.4,2.5-6.4,2.5s-0.5,5.1-0.7,6.8
					c-0.2,1.6-7,0.8-8.1,0.6c-1.2-0.1-1.4-2.6-1.4-2.6s-5.2,0.1-6,0s-1.2-1.4-1.2-1.4s-0.2,1.3-1.3,1.1s-3.8-0.3-4.2-2.4
					c-0.4-2.1,0.2-9.4,1.2-9.7c0,0,0-15.9,6.3-16.8S551.5,322.7,551.5,322.7z"/>
				<path fill="#D1D3D4" d="M552.1,345.7c0,0-6.9,0.1-8.5-1.1c-1.6-1.1-0.4-6.9,0.3-7.4s9.2,0,9.2,0s-7.3,0.5-8.3,1
					c-1,0.5-1.2,4.6-0.8,5.5C544.6,344.6,552.1,345.7,552.1,345.7z"/>
				<path fill="#D1D3D4" d="M541.9,350.5c0,0,0.6-4.4,0.6-7.2c0-2.8-2.5-2.9-3.8-2.9c-1.3,0-3.7,0.1-3.7,2.1s-0.3,6.5-0.3,6.5
					s0.8-5.5,1-6.5c0.3-1,1.5-1.5,2.9-1.2s3.5,0.9,3.5,2S541.9,350.5,541.9,350.5z"/>
				<path fill="#D1D3D4" d="M535,343.5c0,0,0.4-2.6-1.3-3.2c-1.7-0.6-3-0.8-3.6,0.2c-0.5,1-1,3-1,3s0.3-3.4,1.2-3.9s1.8-0.5,3.2,0.1
					C534.9,340.3,535.9,340.4,535,343.5z"/>
			</g>
		</g>
		<g>
			<g>
				<path fill="#D1D3D4" d="M493.8,706.6l7.2,7.8c1.7-1.7,3.8-3.8,5.9-5.7l-7.8-7.9C497.5,702.6,495.7,704.6,493.8,706.6z"/>
				<path fill="#FDC382" d="M533.9,698.6l-0.6-11.9c0,0-24.3,2.9-25.8,5.4c-0.6,1.1-4,4.4-8.2,8.7l7.8,7.9c4.3-4,8.6-7.7,8.6-7.7
					C519,700.8,533.9,698.6,533.9,698.6z"/>
				<path fill="#FFF200" d="M566.4,687.6c-1.6-11.2-9.8-6-36.5-8.5c0,0-7.5,15.2,2.8,26.1c0,0,4.4-4.9,15.9-6.2
					C560.1,697.6,567.6,696.6,566.4,687.6z"/>
				<g>
					<path fill="#E6E7E8" d="M503,714.7c0,0,3.5,5.4-0.5,10.9c-4,5.5-5.9,7.9-7.4,9.3c-1.5,1.4-6.5-2.2-6.5-2.2s-3.7,3.6-4.9,4.7
						c-1.2,1.1-5.8-3.9-6.6-4.8c-0.8-0.9,0.6-2.8,0.6-2.8s-4-3.3-4.6-3.9s0-1.9,0-1.9s-0.9,0.9-1.7,0c-0.8-0.9-2.7-2.7-1.7-4.6
						s6.2-7.1,7.2-6.6c0,0,10.3-12.2,15.7-8.8C498,707.6,503,714.7,503,714.7z"/>
					<path fill="#D1D3D4" d="M488.7,732.7c0,0-5.3-4.4-5.8-6.3c-0.5-1.9,4.1-5.5,5-5.4c0.9,0.1,7.1,5.9,7.1,5.9s-5.9-4.3-7-4.6
						c-1.1-0.2-3.9,2.7-4.1,3.7C483.6,727,488.7,732.7,488.7,732.7z"/>
					<path fill="#D1D3D4" d="M477.8,729.9c0,0,3.3-3,5.1-5.1s0-3.8-1-4.7c-1-0.9-2.9-2.3-4.2-0.8c-1.3,1.5-4.5,4.8-4.5,4.8
						s4.1-3.7,5-4.3c0.8-0.6,2.1-0.2,3,0.9c0.9,1.1,2.2,2.9,1.3,3.8C481.7,725.3,477.8,729.9,477.8,729.9z"/>
					<path fill="#D1D3D4" d="M477,720c0,0,2-1.7,1.1-3.3c-0.9-1.6-1.8-2.6-2.8-2.2c-1,0.4-2.7,1.6-2.7,1.6s2.4-2.4,3.4-2.2
						c1,0.2,1.7,0.8,2.4,2.1C479,717.5,479.7,718.3,477,720z"/>
				</g>
			</g>
			<path fill="#FDC382" d="M541.8,824.6l-25.6-19.3l-5.4,6.8l20.7,16.3c2.2,1.7,5.3,1.5,7.2-0.5L541.8,824.6z"/>
			<g>
				<path fill="#FFF200" d="M524.5,805.3c0,0-10.5,11.6-13.7,15.1c-3.2,3.5-15-7.6-15.9-9.9c0,0-5.6,15.5-13.6,21.1
					c-8,5.5-17.8-1.5-20.7-8.7c0,0,33-36.4,35.3-38.9C498.2,781.5,524.5,805.3,524.5,805.3z"/>
				<path fill="#BCBEC0" d="M458,818.6l34.2-37.7c0.6-0.6,1.5-0.7,2.1-0.1l1.4,1.2c0.6,0.6,0.7,1.5,0.1,2.1l-34.2,37.7
					c-0.6,0.6-1.5,0.7-2.1,0.1l-1.4-1.2C457.5,820.1,457.5,819.2,458,818.6z"/>
			</g>
			<g>
				<polygon fill="#FDC382" points="610.9,811.5 629.4,837.7 636.6,833 619.2,807 				"/>
				<path fill="#FFF200" d="M621.7,836.9c0,0,13.9-7.1,18.1-9.3s11.3,12.4,11.4,14.9c0,0,10.7-12.6,20.2-14.9s16.1,7.6,16.3,15.5
					c0,0-43.8,22.4-46.8,23.9S621.7,836.9,621.7,836.9z"/>
				<path fill="#BCBEC0" d="M688.5,848l-45.3,23.2c-0.7,0.4-1.6,0.1-2-0.6l-0.8-1.7c-0.4-0.7-0.1-1.6,0.6-2l45.3-23.2
					c0.7-0.4,1.6-0.1,2,0.6l0.8,1.7C689.5,846.8,689.2,847.7,688.5,848z"/>
			</g>
			<path fill="#8D796E" d="M589.6,779.2c0,0,16.3,10.4,34.5,24.9c0,0-4.6,13.1-19.3,23.9c0,0-37.2-22.5-39.9-24.4
				S576.6,790.2,589.6,779.2z"/>
			<path fill="#9B8579" d="M544.3,774.8c0,0-1.9,8-5.1,12.6c-3.2,4.5-10.9,15.7-15.5,22.8c0,0,9.8,18.2,25.8,16.8
				c0,0,34.5-40.7,42.5-46.4L544.3,774.8z"/>
			<g>
				<path fill="#FDC382" d="M610.2,554.1c0,0,10.2,12.3,4.8,28.9s8,24.1,8,24.1s8.6-7,11.2,0c2.7,7,1.6,15-6.4,12.9l1.1,7l-6,1.1
					c0,0,2.3,2.1,2.3,4.3s-2.3,5.4-2.3,5.4s1.8,15.5-15.9,16.6s-32.7-0.5-36.4,9.6c-3.7,10.2-2.1,17.7-2.1,17.7h-12.9
					c0,0-0.5-12.9-1.1-16.1s2.7-13.4,2.7-13.4s-13.4,0.5-18.2-17.1c-4.8-17.7,11.8-19.3,22-11.8
					C560.9,623.2,537.8,552.5,610.2,554.1z"/>
				<path fill="#726658" d="M554.8,669c0,0-2.5-11.5-12.9-8.2c0,0-13.9,4.6-12.1-9.3c0,0-6.1,3.9-11.1,0s-2.1-9.6-2.1-9.6
					s-7.9,6.1-14.3,0c-6.4-6.1,0-13.2,0-13.2s-8.6,1.4-10.4-7.5c-1.8-8.9,7.1-10,7.1-10s-9.6,0.7-10.4-8.2c-0.7-8.9,8.6-10,8.6-10
					s-8.6-2.1-6.4-13.6c2.1-11.4,13.9-8.2,13.9-8.2s-6.8-5.4-2.1-12.1c4.6-6.8,11.3-4.8,11.3-4.8s-5.6-7.5,1.5-12.8
					c7.1-5.4,13.6,0,13.6,0s-3.6-8.6,5.4-11.4c8.9-2.9,12.9,3.6,12.9,3.6s-2.9-8.6,6.4-10.7c9.3-2.1,10.7,6.6,10.7,6.6
					s0.7-7.5,10.4-7.5s10,8.2,10,8.2s0.7-7.5,9.6-6.1c8.9,1.4,6.8,8.6,6.8,8.6s5.7-6.8,11.1-0.4c5.4,6.4,0,10,0,10s6.4,0,8.2,6.1
					c1.8,6.1-3.6,8.9-3.6,8.9s-1.8,6.8-8.2,5.7s-8.9-5.4-8.9-5.4s-0.4,4.3-6.4,7.1s-9.3-4.6-9.3-4.6s1.8,4.6-2.1,7.9
					c-3.9,3.2-9.3-1.4-9.3-1.4s3.6,4.3-0.7,8.9c-4.3,4.6-10.4,2.4-10.4,2.4s2.5,3.3,1.8,7.6c-0.7,4.3-5.4,5.2-5.4,5.2s4.3-0.3,5,6.4
					c0.7,6.6-5.5,7-5.5,7s5.1,0.3,5.9,7.8c0.7,7.5-2.5,11.4-2.5,11.4s-6.9-5.2-17.2-3.3s-5.3,30.8,13.4,32.2l-2.3,9.1L554.8,669z"/>
				<path fill="#8DC63F" d="M555.1,674.1l13.2,7.5c0,0,19.3,29.5,23.6,99.1c0,0-28.4,7.5-47.7-5.9c0,0,15-28.9,5.4-93.2L555.1,674.1
					z"/>
				<g>
					<g>
						<path fill="#F1F2F2" d="M598.2,591.6c-8.6,0-12.7,5.7-12.4,10.9s4.4,13,12.4,13S608.6,591.6,598.2,591.6z"/>
						<ellipse fill="#414042" cx="600.9" cy="603.7" rx="3.3" ry="4.3"/>
						<ellipse fill="#FFFFFF" cx="599.8" cy="601.8" rx="1.1" ry="1.3"/>
						<path fill="#414042" d="M585.9,603.6c0,0-0.3-5.1,4.6-8s10.8-3.1,14.6-0.8c0,0-2.6-2.8-6.9-3.2
							C593.9,591.2,584.3,594,585.9,603.6z"/>
					</g>
					<g>
						<path fill="#414042" d="M582,586.2c-0.2,0-0.4,0-0.5-0.1c-0.5-0.3-0.7-1-0.4-1.5c0.1-0.2,3-4.9,8.4-6.3
							c3.5-0.9,7.1-0.2,10.9,2c0.5,0.3,0.7,1,0.4,1.5c-0.3,0.5-1,0.7-1.5,0.4c-10.4-6.1-16.1,3.2-16.3,3.6
							C582.7,586.1,582.3,586.2,582,586.2z"/>
					</g>
				</g>
				<ellipse fill="#F89F76" cx="592.3" cy="621.8" rx="8.6" ry="3.9"/>
				<path fill="#F4806D" d="M622.9,628.1c0,0-6.6,1.6-10.2-2.3C612.7,625.7,617.5,633.5,622.9,628.1z"/>
				<path fill="#F9ED32" d="M568.4,681.6l-13.2-7.5l-3.1,4.2c4.1,2.6,11.4,6.5,18.5,7.1C569.2,682.9,568.4,681.6,568.4,681.6z"/>
			</g>
			<g>
				<path fill="#FDC382" d="M603.7,715.5c-2.4-2.4-12.1-8.4-12.1-8.4l-8.4,8.5c0,0,19.7,16.4,22.4,15.8c1.7-0.4,9.3-12.8,14.6-21.9
					l-9.1-5C607.4,709.8,603.7,715.5,603.7,715.5z"/>
				<path fill="#D1D3D4" d="M618,694.8c-1.3,1.5-4.1,5.5-6.9,9.6l9.1,5c3.1-5.3,5.5-9.6,5.5-9.6L618,694.8z"/>
				<path fill="#FFF200" d="M561.6,690.3c-7.3,8.6,2.2,11.3,18.1,32.8c0,0,16.3-4.7,17.6-19.6c0,0-6.5,0-15.3-7.6
					C573.3,688.3,567.5,683.3,561.6,690.3z"/>
				<path fill="#E6E7E8" d="M616.1,697.1c-3-0.8-4-7.6-4-11.1c-0.1-3.5,1.9-9,3.9-10.1c2-1.1,5.8-0.3,5.8-0.3s3.6-5.3,4.7-6.5
					s7.3-1.1,8.4-0.8c1.2,0.3,0,4.5,0,4.5s4.9,2.4,4.8,3.7c0,0,4.1,0.7,3.6,3.3c0,0,3.3,0.9,2.3,5.4c-0.9,4.5-4.7,9.2-5.5,11.3
					s-9.6,6.9-12.2,7.3C625.4,704.1,616.1,697.1,616.1,697.1z"/>
			</g>
		</g>
		<g>
			<g>
				<polygon fill="#FDC382" points="1061.9,812 1088,830.6 1093.2,823.7 1068.1,804.9 				"/>
				<path fill="#FFF200" d="M1080.4,832.3c0,0,10.8-11.3,14-14.7c3.3-3.4,14.8,8,15.7,10.3c0,0,6-15.4,14.1-20.7
					c8.2-5.3,17.7,1.9,20.5,9.2c0,0-33.9,35.6-36.3,38S1080.4,832.3,1080.4,832.3z"/>
				<path fill="#BCBEC0" d="M1147.1,820.8l-35.2,36.8c-0.6,0.6-1.5,0.6-2.1,0l-1.3-1.3c-0.6-0.6-0.6-1.5,0-2.1l35.2-36.8
					c0.6-0.6,1.5-0.6,2.1,0l1.3,1.3C1147.7,819.3,1147.7,820.2,1147.1,820.8z"/>
			</g>
			<path fill="#FDC382" d="M999.6,801.4c0,0-10.2,6.1-13,7.7c-1.8,1-13.7-2.4-13.7-2.4l-1.9,8.6c0,0,14,4.5,16.2,3.3
				c2.2-1.3,16.2-8.6,16.2-8.6L999.6,801.4z"/>
			<g>
				<path fill="#FFF200" d="M977.2,802.7c0,0-2.8,15.3-3.6,20c-0.8,4.7-16.7,1.4-18.7,0c0,0,3.5,16.1-0.4,25.1
					c-3.9,8.9-15.8,8.2-22.2,3.6c0,0,8.8-48.4,9.4-51.7C942.3,796.4,977.2,802.7,977.2,802.7z"/>
				<path fill="#BCBEC0" d="M927.8,849.1l9.1-50.1c0.1-0.8,0.9-1.3,1.7-1.2l1.8,0.3c0.8,0.1,1.3,0.9,1.2,1.7l-9.1,50.1
					c-0.1,0.8-0.9,1.3-1.7,1.2l-1.8-0.3C928.2,850.7,927.7,849.9,927.8,849.1z"/>
			</g>
			<path fill="#D1D3D4" d="M1125.3,718.8l-1.6-10.5c-2.4,0.5-5.3,1-8.1,1.4l2,10.9C1120,720.1,1122.6,719.5,1125.3,718.8z"/>
			<path fill="#FDC382" d="M1087.7,702.9l-6.1,10.2c0,0,21.8,11.2,24.3,10c1.1-0.5,5.8-1.4,11.7-2.6l-2-10.9
				c-5.9,0.9-11.4,1.6-11.4,1.6C1101.2,709.5,1087.7,702.9,1087.7,702.9z"/>
			<path fill="#FFF200" d="M1054.6,693.9c-5,10.1,4.8,10.5,25.4,27.5c0,0,14.7-8.4,12.4-23.2c0,0-6.3,1.6-16.7-3.7
				C1065.4,689.1,1058.6,685.7,1054.6,693.9z"/>
			<path fill="#8D796E" d="M1040.9,781.1c0,0,17.5,8.1,37.6,19.9c0,0-2.8,13.6-15.8,26.3c0,0-30.8-19.6-33.8-21.1
				C1025.9,804.7,1038.4,797.3,1040.9,781.1z"/>
			<path fill="#9B8579" d="M1012.6,767.7c0,0-1.9,9.1-4.9,12.2c-3.9,4-16.3,13.4-22.8,18.8c0,0,12.1,24.6,27.7,28
				c0,0,34.5-36.3,43.8-39.4L1012.6,767.7z"/>
			<g>
				<path fill="#FDC382" d="M1140.6,576.2c0,0,6.1,14.8-3.9,29.1c-10,14.3,0.6,25.4,0.6,25.4s10.2-4.1,10.8,3.3
					c0.5,7.4-2.9,14.8-9.9,10.4l-1,7l-6.1-0.8c0,0,1.6,2.7,0.9,4.8c-0.6,2-3.8,4.4-3.8,4.4s-2.9,15.4-20.1,11.2s-31.1-10.1-37.7-1.5
					s-7.3,16.3-7.3,16.3l-12.3-3.8c0,0,3.3-12.4,3.7-15.7c0.4-3.2,6.5-12,6.5-12s-13-3.4-12.4-21.7c0.6-18.3,16.9-15,24.5-4.8
					C1073.1,627.7,1071.9,553.4,1140.6,576.2z"/>
				<path fill="#726658" d="M1053.8,669.7c0,0,1-11.7-9.9-11.7c0,0-14.7,0.3-8.9-12.4c0,0-7,2-10.6-3.3c-3.6-5.2,0.8-9.8,0.8-9.8
					s-9.3,3.5-13.7-4.2c-4.4-7.7,3.9-12.6,3.9-12.6s-8.6-1.2-7.7-10.2c0.9-9.1,9.8-7.5,9.8-7.5s-9.4-2.2-7.5-10.9
					c1.9-8.7,11.1-7,11.1-7s-7.6-4.6-2.1-14.9c5.4-10.3,15.7-3.8,15.7-3.8s-4.9-7.1,1.5-12.2s12.3-1.3,12.3-1.3s-3.2-8.8,5.2-11.8
					s13,4,13,4s-0.9-9.2,8.5-9.3c9.4-0.1,11.2,7.2,11.2,7.2s-0.2-9,9.3-8.3s8.3,9.5,8.3,9.5s2.9-7,12.1-4.1
					c9.2,2.8,7.1,10.8,7.1,10.8s2.9-7,11-3c8.1,4,4,10.2,4,10.2s7.5-4.8,10.7,2.9c3.2,7.7-2.9,9.6-2.9,9.6s6.1,1.9,6.1,8.2
					s-6,7.5-6,7.5s-3.7,6-9.5,3c-5.8-2.9-7-7.7-7-7.7s-1.6,4-8.2,4.9s-7.5-7.2-7.5-7.2s0.3,5-4.4,6.9c-4.7,1.9-8.5-4.1-8.5-4.1
					s2.2,5.1-3.3,8.3c-5.5,3.2-10.6-0.8-10.6-0.8s1.4,3.9-0.5,7.8s-6.7,3.4-6.7,3.4s4.2,1,2.9,7.6c-1.3,6.6-7.3,5.1-7.3,5.1
					s4.8,1.8,3.3,9.2c-1.5,7.4-5.8,10.2-5.8,10.2s-5-7-15.4-8.2s-14.2,27.9,3.3,34.8l-4.9,8L1053.8,669.7z"/>
				<path fill="#8DC63F" d="M1052.7,674.7l10.4,11.1c0,0,9.8,33.8-6.6,101.7c0,0-29.3-1.2-43.8-19.7c0,0,22.9-23.2,32.6-87.5
					L1052.7,674.7z"/>
				<g>
					<g>
						<path fill="#F1F2F2" d="M1118.5,605.1c-8.4-1.5-13.5,3.5-14.1,8.7c-0.6,5.2,2.1,13.6,10,15
							C1122.3,630.1,1128.7,606.9,1118.5,605.1z"/>
						
							<ellipse transform="matrix(0.9853 0.1706 -0.1706 0.9853 121.7908 -181.917)" fill="#414042" cx="1119.1" cy="617.5" rx="3.3" ry="4.3"/>
						
							<ellipse transform="matrix(0.9853 0.1706 -0.1706 0.9853 121.4263 -181.8164)" fill="#FFFFFF" cx="1118.3" cy="615.4" rx="1.1" ry="1.3"/>
						<path fill="#414042" d="M1104.4,614.8c0,0,0.6-5.1,5.9-7.1c5.3-2,11.2-1.2,14.5,1.7c0,0-2.1-3.2-6.2-4.4
							S1104.4,605.1,1104.4,614.8z"/>
					</g>
					<g>
						<path fill="#414042" d="M1103.4,597.1c-0.2,0-0.4-0.1-0.5-0.2c-0.5-0.4-0.5-1.1-0.1-1.5c0.2-0.2,3.8-4.4,9.3-4.8
							c3.6-0.3,7.1,1,10.4,3.9c0.5,0.4,0.5,1.1,0.1,1.5c-0.4,0.5-1.1,0.5-1.5,0.1c-9.2-7.8-16.4,0.4-16.7,0.7
							C1104.2,597,1103.8,597.1,1103.4,597.1z"/>
					</g>
				</g>
				
					<ellipse transform="matrix(0.9557 0.2944 -0.2944 0.9557 236.0002 -296.6938)" fill="#F89F76" cx="1103.6" cy="635.6" rx="8.6" ry="3.9"/>
				<path fill="#F4806D" d="M1130.9,650.6c0,0-6.8-0.4-9.1-5.2C1121.9,645.4,1124.2,654.2,1130.9,650.6z"/>
				<path fill="#F9ED32" d="M1063.1,685.7l-10.4-11.1l-4.2,3.1c3.2,3.7,9,9.5,15.6,12.3C1063.5,687.2,1063.1,685.7,1063.1,685.7z"/>
			</g>
			<g>
				<path fill="#E6E7E8" d="M1122.2,706.9c0,0,0.2-6.4,6.5-8.7c6.3-2.3,9.4-3.3,11.4-3.6s4.2,5.4,4.2,5.4s5.1-0.9,6.7-1.2
					s2.6,6.5,2.8,7.7c0.2,1.2-2.1,2-2.1,2s1.5,5,1.6,5.8c0.1,0.8-1.1,1.5-1.1,1.5s1.3-0.2,1.4,1c0.2,1.2,0.7,3.8-1.2,4.7
					c-1.9,1-9.1,2.4-9.6,1.4c0,0-15.4,4.3-17.9-1.5C1122.4,715.7,1122.2,706.9,1122.2,706.9z"/>
				<path fill="#D1D3D4" d="M1144.2,700.1c0,0,1.9,6.6,1.3,8.5c-0.6,1.9-6.5,2.3-7.2,1.7c-0.6-0.6-2.5-8.9-2.5-8.9s2.4,6.9,3.2,7.7
					c0.8,0.8,4.7,0,5.5-0.7C1145.2,707.6,1144.2,700.1,1144.2,700.1z"/>
				<path fill="#D1D3D4" d="M1151.6,708.6c0,0-4.4,0.6-7.1,1.3s-2.1,3.2-1.8,4.4c0.3,1.3,1.1,3.5,3,3c1.9-0.5,6.4-1.5,6.4-1.5
					s-5.5,0.8-6.5,0.8s-1.8-1.1-2-2.5c-0.1-1.4-0.1-3.6,1-3.9S1151.6,708.6,1151.6,708.6z"/>
				<path fill="#D1D3D4" d="M1146.7,717.2c0,0-2.6,0.3-2.7,2.1s0.1,3.2,1.1,3.4c1.1,0.2,3.2,0.2,3.2,0.2s-3.4,0.6-4-0.1
					s-1-1.6-0.8-3.1C1143.7,718.2,1143.5,717.1,1146.7,717.2z"/>
			</g>
			<path fill="#D1D3D4" d="M981.5,666.8l1.6,10.5c2.4-0.5,5.3-1,8.1-1.4l-2-10.9C986.9,665.5,984.2,666.1,981.5,666.8z"/>
			<path fill="#FDC382" d="M1019.2,682.6l6.1-10.2c0,0-21.8-11.2-24.3-10c-1.1,0.5-5.8,1.4-11.7,2.6l2,10.9
				c5.9-0.9,11.4-1.6,11.4-1.6C1005.6,676,1019.2,682.6,1019.2,682.6z"/>
			<path fill="#FFF200" d="M1052.3,691.7c5-10.1-4.8-10.5-25.4-27.5c0,0-14.7,8.4-12.4,23.2c0,0,6.3-1.6,16.7,3.7
				C1041.5,696.4,1048.3,699.9,1052.3,691.7z"/>
			<g>
				<path fill="#E6E7E8" d="M984.6,678.6c0,0-0.1,6.4-6.5,8.7c-6.3,2.3-9.4,3.3-11.4,3.6s-4.2-5.4-4.2-5.4s-5.1,0.9-6.7,1.2
					c-1.6,0.2-2.7-6.5-2.8-7.7c-0.2-1.2,2.1-2,2.1-2s-1.5-5-1.6-5.8c-0.1-0.8,1.1-1.5,1.1-1.5s-1.3,0.2-1.4-1s-0.8-3.8,1.1-4.7
					c1.9-1,9.1-2.4,9.6-1.4c0,0,15.3-4.3,17.9,1.5C984.4,669.9,984.6,678.6,984.6,678.6z"/>
				<path fill="#D1D3D4" d="M962.6,685.5c0,0-1.9-6.6-1.3-8.5s6.5-2.3,7.2-1.7c0.6,0.6,2.5,8.9,2.5,8.9s-2.4-6.9-3.2-7.7
					c-0.8-0.8-4.7,0-5.5,0.7C961.7,677.9,962.6,685.5,962.6,685.5z"/>
				<path fill="#D1D3D4" d="M955.2,677c0,0,4.4-0.6,7.1-1.3c2.7-0.7,2.1-3.2,1.8-4.4s-1.1-3.5-3-3s-6.4,1.5-6.4,1.5s5.5-0.8,6.5-0.8
					s1.8,1.1,2,2.5s0.1,3.6-1,3.9C961,675.4,955.2,677,955.2,677z"/>
				<path fill="#D1D3D4" d="M960.1,668.4c0,0,2.6-0.4,2.7-2.1c0.1-1.8-0.1-3.2-1.1-3.4c-1.1-0.2-3.2-0.2-3.2-0.2s3.4-0.6,4,0.1
					c0.7,0.7,1,1.6,0.8,3.1C963.2,667.4,963.3,668.4,960.1,668.4z"/>
			</g>
		</g>
		<g>
			<path fill="#D1D3D4" d="M766.5,315.4l9.2,5.6c0.4-0.5,1.8-2.4,3.8-5.1l-9.9-5.5C767.8,313.1,766.7,314.9,766.5,315.4z"/>
			<path fill="#FDC382" d="M796.6,271.7c0,0-19.3,27.2-27,38.8l9.9,5.5c8.1-11.1,25.9-36.3,25.9-36.3L796.6,271.7z"/>
			<path fill="#FFF200" d="M820.8,249c-9-6.9-11.2,2.7-31.9,19.5c0,0,5.4,16.1,20.3,16.7c0,0-0.3-6.5,6.9-15.6
				C823.3,260.6,828,254.6,820.8,249z"/>
			<g>
				<polygon fill="#FBB674" points="814.1,390.4 814.4,436.1 823,435.2 823.5,390.1 				"/>
				<path fill="#EEDC00" d="M808,431.8c0,0,15.6,0.1,20.3,0.2c4.7,0,4.3,16.2,3.3,18.4c0,0,15.3-6.2,24.8-3.9
					c9.5,2.3,7.7,14.2,4.3,21.2c0,0-49.1-0.4-52.5-0.4C804.7,467.3,808,431.8,808,431.8z"/>
				<path fill="#BCBEC0" d="M859.1,472.5l-50.9-0.4c-0.8,0-1.5-0.7-1.5-1.5l0-1.9c0-0.8,0.7-1.5,1.5-1.5l50.9,0.4
					c0.8,0,1.5,0.7,1.5,1.5l0,1.9C860.6,471.9,859.9,472.5,859.1,472.5z"/>
			</g>
			<path fill="#FDC382" d="M844.7,390.6l-30.5,9.9l2.4,8.3l25.3-7.6c2.6-0.8,4.3-3.5,3.7-6.2L844.7,390.6z"/>
			<path fill="#8D796E" d="M803.4,353.6c0,0,0.4,22.9,5.1,43.5c0,0,14,4.4,28.1-7.2c0,0-0.8-19.6-2.1-22.7S819.8,353,803.4,353.6z"
				/>
			<path fill="#9B8579" d="M801.7,339.7c0,0,0.7,9.9,1.4,14.2s14.2,30.4,18.6,44.1c0,0,18.1-3.4,35.3-7c0,0-6.3-36.5-7.6-45.4
				L801.7,339.7z"/>
			<g>
				<path fill="#FDC382" d="M867.6,119c0,0,10.2,12.3,4.8,28.9c-5.4,16.6,8,24.1,8,24.1s8.6-7,11.2,0s1.6,15-6.4,12.9l1.1,7l-6,1.1
					c0,0,2.3,2.1,2.3,4.3s-2.3,5.4-2.3,5.4s1.8,15.5-15.9,16.6c-17.7,1.1-32.7-0.5-36.4,9.6c-3.7,10.2-2.1,17.7-2.1,17.7h-12.9
					c0,0-0.5-12.9-1.1-16.1c-0.5-3.2,2.7-13.4,2.7-13.4s-13.4,0.5-18.2-17.1c-4.8-17.7,11.8-19.3,22-11.8
					C818.3,188.1,795.3,117.4,867.6,119z"/>
				<path fill="#726658" d="M812.2,233.9c0,0-2.5-11.5-12.9-8.2c0,0-13.9,4.6-12.1-9.3c0,0-6.1,3.9-11.1,0s-2.1-9.6-2.1-9.6
					s-7.9,6.1-14.3,0c-6.4-6.1,0-13.2,0-13.2s-8.6,1.4-10.4-7.5s7.1-10,7.1-10s-9.6,0.7-10.4-8.2c-0.7-8.9,8.6-10,8.6-10
					s-8.6-2.1-6.4-13.6c2.1-11.4,13.9-8.2,13.9-8.2s-6.8-5.4-2.1-12.1c4.6-6.8,11.3-4.8,11.3-4.8s-5.6-7.5,1.5-12.8
					c7.1-5.4,13.6,0,13.6,0s-3.6-8.6,5.4-11.4c8.9-2.9,12.9,3.6,12.9,3.6s-2.9-8.6,6.4-10.7s10.7,6.6,10.7,6.6s0.7-7.5,10.4-7.5
					s10,8.2,10,8.2s0.7-7.5,9.6-6.1s6.8,8.6,6.8,8.6s5.7-6.8,11.1-0.4c5.4,6.4,0,10,0,10s6.4,0,8.2,6.1s-3.6,8.9-3.6,8.9
					s-1.8,6.8-8.2,5.7c-6.4-1.1-8.9-5.4-8.9-5.4s-0.4,4.3-6.4,7.1c-6.1,2.9-9.3-4.6-9.3-4.6s1.8,4.6-2.1,7.9s-9.3-1.4-9.3-1.4
					s3.6,4.3-0.7,8.9c-4.3,4.6-10.4,2.4-10.4,2.4s2.5,3.3,1.8,7.6c-0.7,4.3-5.4,5.2-5.4,5.2s4.3-0.3,5,6.4c0.7,6.6-5.5,7-5.5,7
					s5.1,0.3,5.9,7.8c0.7,7.5-2.5,11.4-2.5,11.4s-6.9-5.2-17.2-3.3s-5.3,30.8,13.4,32.2l-2.3,9.1L812.2,233.9z"/>
				<path fill="#8DC63F" d="M812.6,239l13.2,7.5c0,0,19.3,29.5,23.6,99.1c0,0-28.4,7.5-47.7-5.9c0,0,15-28.9,5.4-93.2L812.6,239z"/>
				<g>
					<g>
						<path fill="#F1F2F2" d="M855.6,156.5c-8.6,0-12.7,5.7-12.4,10.9c0.3,5.2,4.4,13,12.4,13S866,156.5,855.6,156.5z"/>
						<ellipse fill="#414042" cx="858.3" cy="168.6" rx="3.3" ry="4.3"/>
						<ellipse fill="#FFFFFF" cx="857.2" cy="166.7" rx="1.1" ry="1.3"/>
						<path fill="#414042" d="M843.3,168.5c0,0-0.3-5.1,4.6-8c4.9-2.8,10.8-3.1,14.6-0.8c0,0-2.6-2.8-6.9-3.2
							C851.3,156.1,841.7,158.8,843.3,168.5z"/>
					</g>
					<g>
						<path fill="#414042" d="M839.4,151.1c-0.2,0-0.4,0-0.5-0.1c-0.5-0.3-0.7-1-0.4-1.5c0.1-0.2,3-4.9,8.4-6.3
							c3.5-0.9,7.1-0.2,10.9,2c0.5,0.3,0.7,1,0.4,1.5c-0.3,0.5-1,0.7-1.5,0.4c-10.4-6.1-16.1,3.2-16.3,3.6
							C840.1,150.9,839.8,151.1,839.4,151.1z"/>
					</g>
				</g>
				<ellipse fill="#F89F76" cx="849.7" cy="186.7" rx="8.6" ry="3.9"/>
				<path fill="#F4806D" d="M880.3,192.9c0,0-6.6,1.6-10.2-2.3C870.1,190.6,874.9,198.3,880.3,192.9z"/>
				<path fill="#F9ED32" d="M825.8,246.5l-13.2-7.5l-3.1,4.2c4.1,2.6,11.4,6.5,18.5,7.1C826.6,247.8,825.8,246.5,825.8,246.5z"/>
			</g>
			<g>
				<path fill="#FFF200" d="M818.9,393.8c0,0,3.4,15.2,4.5,19.8c1,4.6-14.8,7.8-17.2,7.3c0,0,9.5,13.5,9.4,23.2s-11.4,13.7-19,11.9
					c0,0-10.8-48-11.5-51.3C784.3,401.5,818.9,393.8,818.9,393.8z"/>
				<path fill="#BCBEC0" d="M791.5,455.7L780.3,406c-0.2-0.8,0.3-1.6,1.1-1.8l1.8-0.4c0.8-0.2,1.6,0.3,1.8,1.1l11.2,49.7
					c0.2,0.8-0.3,1.6-1.1,1.8l-1.8,0.4C792.5,457,791.7,456.5,791.5,455.7z"/>
			</g>
			<g>
				<path fill="#D1D3D4" d="M829.6,322.5l8.8-6.1c-1.5-1.9-3.2-4.3-4.8-6.7l-8.9,6.6C826.1,318.3,827.8,320.4,829.6,322.5z"/>
				<path fill="#FDC382" d="M827.2,281.7l-11.9-1c0,0-0.5,24.5,1.7,26.3c1,0.8,3.8,4.6,7.5,9.4l8.9-6.6c-3.4-4.9-6.4-9.6-6.4-9.6
					C827.3,296.8,827.2,281.7,827.2,281.7z"/>
				<path fill="#FFF200" d="M820.9,248c-11.3,0-7.3,8.9-13.5,34.9c0,0,14,9.5,26.3,0.9c0,0-4.2-5-4-16.6
					C829.9,255.7,830,248,820.9,248z"/>
				<path fill="#E6E7E8" d="M837.1,314.9c1.8-2.6,8.4-1.2,11.8-0.1c3.3,1.1,7.9,4.8,8.2,7.1c0.3,2.3-1.7,5.6-1.7,5.6
					s3.8,5.2,4.5,6.6c0.8,1.4-1.4,7.2-2.1,8.2s-4.3-1.5-4.3-1.5s-3.8,3.8-5,3.3c0,0-2,3.6-4.3,2.3c0,0-1.9,2.8-5.8,0.4
					c-3.9-2.4-7.1-7.5-8.8-8.9c-1.7-1.4-3.3-11.3-2.8-13.9S837.1,314.9,837.1,314.9z"/>
			</g>
			<g>
				<path fill="#E6E7E8" d="M777.4,322.6c0,0,4.6,4.5,2,10.7s-3.9,9.1-5.1,10.8c-1.1,1.7-6.8-0.6-6.8-0.6s-2.7,4.4-3.7,5.7
					c-0.9,1.4-6.6-2.5-7.5-3.1c-1-0.7,0-2.9,0-2.9s-4.7-2.3-5.4-2.8c-0.7-0.5-0.4-1.8-0.4-1.8s-0.7,1.1-1.7,0.4c-1-0.7-3.3-2-2.7-4
					s4.4-8.3,5.5-8.1c0,0,7.2-14.2,13.2-12.1C770.9,316.8,777.4,322.6,777.4,322.6z"/>
				<path fill="#D1D3D4" d="M767.5,343.4c0,0-6.1-3.1-7.1-4.8s2.8-6.3,3.6-6.4s8.3,4.2,8.3,4.2s-6.7-2.9-7.8-2.9
					c-1.1,0-3.2,3.5-3.2,4.5C761.4,339,767.5,343.4,767.5,343.4z"/>
				<path fill="#D1D3D4" d="M756.3,343.1c0,0,2.5-3.7,3.8-6.1c1.3-2.5-0.9-3.7-2.1-4.3c-1.2-0.6-3.3-1.6-4.3,0.2
					c-1,1.8-3.2,5.7-3.2,5.7s3.2-4.6,3.9-5.4c0.7-0.8,2-0.6,3.2,0.2s2.8,2.4,2.2,3.4C759.1,337.8,756.3,343.1,756.3,343.1z"/>
				<path fill="#D1D3D4" d="M753.3,333.7c0,0,1.5-2.1,0.3-3.5c-1.2-1.3-2.4-2.1-3.2-1.5c-0.9,0.6-2.3,2.2-2.3,2.2s1.8-2.9,2.8-2.9
					c1,0,1.8,0.4,2.8,1.5C754.6,330.8,755.5,331.4,753.3,333.7z"/>
			</g>
		</g>
		<g>
			<polygon fill="#FDC382" points="1023.1,390.5 1007.3,418.4 1014.7,422.9 1030.8,396 			"/>
			<g>
				<path fill="#BCBEC0" d="M987.5,436.2l-2.8,1c-0.9,0.3-1.4,1.4-1,2.3c2.6,6.3,12,28.5,12.6,31.7c0.7,3.7,8.1,2.5,10,2.5
					s19.7,0,23,0s3.7-5,1.2-5S987.5,436.2,987.5,436.2z"/>
				<path fill="#FFF200" d="M1001.8,410.6c0,0,15.3,9.5,18.4,12.7c5,5.2-6.3,20.2-8.6,20.5c0,0,20.2-6.7,27.5,5.6
					c4.8,7.9-1.2,18.4-8.6,19.3c0,0-28.2,2.3-30.1-1.8c-5.2-11.1-12-29.4-12.9-30.8C985.8,433.5,1001.8,410.6,1001.8,410.6z"/>
			</g>
			<path fill="#FDC382" d="M1094.2,383.7l-23.2,22.1l5.8,6.4l19.5-17.7c2-1.9,2.3-5,0.7-7.2L1094.2,383.7z"/>
			<g>
				<path fill="#D1D3D4" d="M1084.4,308.5l1.3-10.7c-0.6-0.2-2.9-0.7-6.2-1.4l-0.9,11.3C1081.8,308.3,1083.9,308.6,1084.4,308.5z"/>
				<path fill="#FDC382" d="M1050.6,303.8c0,0,14.3,1.8,28,4l0.9-11.3c-13.5-2.7-25.2-4-25.2-4L1050.6,303.8z"/>
				<g>
					<path fill="#E6E7E8" d="M1086.4,295.6c0,0,2.1-6.1,8.9-6.3c6.7-0.2,9.9-0.2,11.9,0.1s2.3,6.5,2.3,6.5s5.1,0.7,6.7,1
						s0.5,7,0.3,8.2c-0.2,1.2-2.6,1.2-2.6,1.2s-0.1,5.2-0.3,6c-0.1,0.8-1.5,1.1-1.5,1.1s1.3,0.2,1.1,1.4c-0.2,1.2-0.5,3.8-2.6,4.1
						c-2.1,0.3-9.4-0.6-9.6-1.6c0,0-15.9-0.7-16.5-7C1083.9,304,1086.4,295.6,1086.4,295.6z"/>
					<path fill="#D1D3D4" d="M1109.5,295.9c0,0-0.2,6.9-1.4,8.4c-1.2,1.6-6.9,0.1-7.3-0.6c-0.4-0.7,0.3-9.2,0.3-9.2s0.2,7.3,0.6,8.3
						s4.5,1.4,5.4,1C1108,303.4,1109.5,295.9,1109.5,295.9z"/>
					<path fill="#D1D3D4" d="M1113.9,306.3c0,0-4.4-0.8-7.2-0.9c-2.8-0.2-3,2.3-3.1,3.7s-0.1,3.7,1.9,3.8s6.5,0.6,6.5,0.6
						s-5.5-1-6.5-1.3s-1.4-1.6-1.1-3s1-3.5,2.2-3.4C1107.9,306,1113.9,306.3,1113.9,306.3z"/>
					<path fill="#D1D3D4" d="M1106.6,312.9c0,0-2.6-0.5-3.3,1.2s-0.9,3,0,3.6s3,1.1,3,1.1s-3.4-0.4-3.8-1.3s-0.4-1.8,0.2-3.2
						C1103.3,312.9,1103.5,311.9,1106.6,312.9z"/>
				</g>
			</g>
			<path fill="#8D796E" d="M1030.1,350.1c0,0-8.3,22.6-15,42.6c0,0,9.7,13,27.7,10.5c0,0,9.5-19.2,10-22.4
				C1053.5,377.5,1044.4,358.1,1030.1,350.1z"/>
			<path fill="#9B8579" d="M1029.1,344.9c0,0,0.3,10,1.4,14.2c3.6,12.9,24.1,19.3,48.7,38.9c0,0,16.7-16,24.2-22.1
				c0,0-18.5-18.9-26.7-25.1L1029.1,344.9z"/>
			<g>
				<path fill="#FDC382" d="M1095,124.2c0,0,10.2,12.3,4.8,28.9s8,24.1,8,24.1s8.6-7,11.2,0s1.6,15-6.4,12.9l1.1,7l-6,1.1
					c0,0,2.3,2.1,2.3,4.3s-2.3,5.4-2.3,5.4s1.8,15.5-15.9,16.6c-17.7,1.1-32.7-0.5-36.4,9.6c-3.8,10.2-2.1,17.7-2.1,17.7h-12.9
					c0,0-0.5-12.9-1.1-16.1c-0.5-3.2,2.7-13.4,2.7-13.4s-13.4,0.5-18.2-17.1s11.8-19.3,22-11.8
					C1045.7,193.3,1022.7,122.6,1095,124.2z"/>
				<path fill="#726658" d="M1039.6,239.1c0,0-2.5-11.5-12.9-8.2c0,0-13.9,4.6-12.1-9.3c0,0-6.1,3.9-11.1,0c-5-3.9-2.1-9.6-2.1-9.6
					s-7.9,6.1-14.3,0s0-13.2,0-13.2s-8.6,1.4-10.4-7.5c-1.8-8.9,7.1-10,7.1-10s-9.6,0.7-10.4-8.2c-0.7-8.9,8.6-10,8.6-10
					s-8.6-2.1-6.4-13.6s13.9-8.2,13.9-8.2s-6.8-5.4-2.1-12.1c4.6-6.8,11.3-4.8,11.3-4.8s-5.6-7.5,1.5-12.8c7.1-5.4,13.6,0,13.6,0
					s-3.6-8.6,5.4-11.4c8.9-2.9,12.9,3.6,12.9,3.6s-2.9-8.6,6.4-10.7c9.3-2.1,10.7,6.6,10.7,6.6s0.7-7.5,10.4-7.5
					c9.6,0,10,8.2,10,8.2s0.7-7.5,9.6-6.1s6.8,8.6,6.8,8.6s5.7-6.8,11.1-0.4c5.4,6.4,0,10,0,10s6.4,0,8.2,6.1
					c1.8,6.1-3.6,8.9-3.6,8.9s-1.8,6.8-8.2,5.7c-6.4-1.1-8.9-5.4-8.9-5.4s-0.4,4.3-6.4,7.1s-9.3-4.6-9.3-4.6s1.8,4.6-2.1,7.9
					c-3.9,3.2-9.3-1.4-9.3-1.4s3.6,4.3-0.7,8.9c-4.3,4.6-10.4,2.4-10.4,2.4s2.5,3.3,1.8,7.6c-0.7,4.3-5.4,5.2-5.4,5.2s4.3-0.3,5,6.4
					c0.7,6.6-5.5,7-5.5,7s5.1,0.3,5.9,7.8c0.7,7.5-2.5,11.4-2.5,11.4s-6.9-5.2-17.2-3.3c-10.3,1.9-5.3,30.8,13.4,32.2l-2.3,9.1
					L1039.6,239.1z"/>
				<path fill="#8DC63F" d="M1040,244.2l13.2,7.5c0,0,19.3,29.5,23.6,99.1c0,0-28.4,7.5-47.7-5.9c0,0,15-28.9,5.4-93.2L1040,244.2z"
					/>
				<g>
					<g>
						<path fill="#F1F2F2" d="M1083.1,161.7c-8.6,0-12.7,5.7-12.4,10.9c0.3,5.2,4.4,13,12.4,13
							C1091,185.6,1093.4,161.7,1083.1,161.7z"/>
						<ellipse fill="#414042" cx="1085.7" cy="173.8" rx="3.3" ry="4.3"/>
						<ellipse fill="#FFFFFF" cx="1084.6" cy="171.9" rx="1.1" ry="1.3"/>
						<path fill="#414042" d="M1070.7,173.6c0,0-0.3-5.1,4.6-8c4.9-2.8,10.8-3.1,14.6-0.8c0,0-2.6-2.8-6.9-3.2
							C1078.8,161.3,1069.2,164,1070.7,173.6z"/>
					</g>
					<g>
						<path fill="#414042" d="M1066.8,156.3c-0.2,0-0.4,0-0.5-0.1c-0.5-0.3-0.7-1-0.4-1.5c0.1-0.2,3-4.9,8.4-6.3
							c3.5-0.9,7.1-0.2,10.9,2c0.5,0.3,0.7,1,0.4,1.5c-0.3,0.5-1,0.7-1.5,0.4c-10.4-6.1-16.1,3.2-16.3,3.6
							C1067.5,156.1,1067.2,156.3,1066.8,156.3z"/>
					</g>
				</g>
				<ellipse fill="#F89F76" cx="1077.1" cy="191.9" rx="8.6" ry="3.9"/>
				<path fill="#F4806D" d="M1107.7,198.1c0,0-6.6,1.6-10.2-2.3C1097.5,195.8,1102.3,203.5,1107.7,198.1z"/>
				<path fill="#F9ED32" d="M1053.2,251.7l-13.2-7.5l-3.1,4.2c4.1,2.6,11.4,6.5,18.5,7.1C1054,253,1053.2,251.7,1053.2,251.7z"/>
			</g>
			<g>
				<path fill="#FFF200" d="M1070.2,398.3c0,0,11.3,10.7,14.8,14s-7.9,14.8-10.2,15.7c0,0,15.4,5.9,20.8,14.1s-1.9,17.7-9.2,20.5
					c0,0-35.6-33.8-38.1-36.2C1045.8,424.1,1070.2,398.3,1070.2,398.3z"/>
				<path fill="#BCBEC0" d="M1081.9,465.1L1045,430c-0.6-0.6-0.6-1.5-0.1-2.1l1.3-1.3c0.6-0.6,1.5-0.6,2.1-0.1l36.9,35.1
					c0.6,0.6,0.6,1.5,0.1,2.1l-1.3,1.3C1083.5,465.6,1082.5,465.6,1081.9,465.1z"/>
			</g>
			<g>
				<path fill="#D1D3D4" d="M1006.2,316.4l10.6,1c0.1-2.4,0.3-5.4,0.6-8.2l-11.1-0.7C1006.3,310.9,1006.2,313.6,1006.2,316.4z"/>
				<path fill="#FDC382" d="M1030.7,283.7l-8.4-8.4c0,0-16.2,18.4-15.6,21.2c0.3,1.2-0.1,6-0.3,12l11.1,0.7
					c0.6-5.9,1.3-11.5,1.3-11.5C1021.1,295.3,1030.7,283.7,1030.7,283.7z"/>
				<path fill="#FFF200" d="M1047.6,253.8c-8.6-7.3-11.3,2.1-32.8,18c0,0,4.6,16.3,19.5,17.6c0,0,0-6.5,7.7-15.3
					C1049.6,265.4,1054.6,259.7,1047.6,253.8z"/>
				<path fill="#E6E7E8" d="M1017,315.4c3-0.8,7.3,4.5,9.1,7.5c1.8,3,2.9,8.8,1.7,10.7c-1.2,1.9-4.9,3.2-4.9,3.2s-0.5,6.4-0.8,8
					c-0.3,1.6-5.7,4.6-6.9,4.9s-2.3-3.9-2.3-3.9s-5.4,0.4-6-0.8c0,0-3.8,1.5-4.8-1c0,0-3.3,0.9-4.7-3.5c-1.5-4.3-0.6-10.3-1-12.5
					c-0.3-2.2,4.8-10.8,6.8-12.4C1005.3,314.1,1017,315.4,1017,315.4z"/>
			</g>
		</g>
		<g>
			<g>
				<polygon fill="#FDC382" points="339.4,823.5 339.6,857.2 348.2,856.2 348.8,823.2 				"/>
				<path fill="#FFF200" d="M335.1,853c0,0,13.6-0.1,18.3-0.1s4.5,16.2,3.5,18.4c0,0,15.2-6.4,24.7-4.3c9.5,2.2,10.9,14,7.6,21.1
					c0,0-49.1,0.4-52.5,0.4C333.4,888.5,335.1,853,335.1,853z"/>
				<path fill="#BCBEC0" d="M387.8,892.9l-50.9,0.4c-0.8,0-1.5-0.7-1.5-1.5l0-1.9c0-0.8,0.7-1.5,1.5-1.5l50.9-0.4
					c0.8,0,1.5,0.7,1.5,1.5l0,1.9C389.3,892.3,388.6,892.9,387.8,892.9z"/>
			</g>
			<path fill="#D1D3D4" d="M290.7,737.4l10.6,1.3c0.2-2.4,0.5-5.3,0.8-8.2l-11-1.1C290.9,732,290.8,734.7,290.7,737.4z"/>
			<path fill="#FDC382" d="M316.2,705.5l-8.2-8.7c0,0-16.7,17.9-16.2,20.7c0.2,1.2-0.3,6-0.7,12l11,1.1c0.7-5.9,1.6-11.4,1.6-11.4
				C306.2,716.8,316.2,705.5,316.2,705.5z"/>
			<path fill="#FFF200" d="M333.9,676.1c-8.4-7.5-11.4,1.8-33.4,17c0,0,4.1,16.5,19,18.2c0,0,0.2-6.5,8.1-15
				C335.6,687.8,340.7,682.2,333.9,676.1z"/>
			<g>
				<g>
					<polygon fill="#FDC382" points="309.4,794.9 286.2,817 292,823.4 315.1,802.3 					"/>
					<path fill="#FFF200" d="M285.9,809.2c0,0,9.1,12.7,11.8,16.6c2.8,3.9-10.6,13-13,13.5c0,0,14,8.8,17.7,17.8s-5.2,17-12.9,18.4
						c0,0-28.5-40-30.5-42.8S285.9,809.2,285.9,809.2z"/>
					<path fill="#BCBEC0" d="M284.7,876.9l-29.6-41.5c-0.5-0.7-0.3-1.6,0.3-2.1l1.5-1.1c0.7-0.5,1.6-0.3,2.1,0.3l29.6,41.5
						c0.5,0.7,0.3,1.6-0.3,2.1l-1.5,1.1C286.1,877.8,285.2,877.6,284.7,876.9z"/>
				</g>
				<path fill="#8D796E" d="M349.4,793.6c0,0-13.5,13.8-31.5,28.6c0,0-11.9-7.2-19.4-23.8c0,0,17.8-15.3,24.5-29.3
					C324.5,766.1,335,785.8,349.4,793.6z"/>
			</g>
			<path fill="#9B8579" d="M321.3,768.5c0,0-1.2,11.8-0.6,16.1c1.1,7.4,6.7,27.8,8.7,41.6c0,0,17.4,1.9,33.3,0.6
				c0,0,6.2-42.8,6.2-52.4L321.3,768.5z"/>
			<g>
				<path fill="#FDC382" d="M387.2,547.8c0,0,10.2,12.3,4.8,28.9c-5.4,16.6,8,24.1,8,24.1s8.6-7,11.2,0c2.7,7,1.6,15-6.4,12.9l1.1,7
					l-6,1.1c0,0,2.3,2.1,2.3,4.3s-2.3,5.4-2.3,5.4s1.8,15.5-15.9,16.6c-17.7,1.1-32.7-0.5-36.4,9.6c-3.7,10.2-2.1,17.7-2.1,17.7
					h-12.9c0,0-0.5-12.9-1.1-16.1c-0.5-3.2,2.7-13.4,2.7-13.4s-13.4,0.5-18.2-17.1s11.8-19.3,22-11.8
					C337.9,616.9,314.8,546.2,387.2,547.8z"/>
				<path fill="#726658" d="M331.8,662.6c0,0-2.5-11.5-12.9-8.2c0,0-13.9,4.6-12.1-9.3c0,0-6.1,3.9-11.1,0c-5-3.9-2.1-9.6-2.1-9.6
					s-7.9,6.1-14.3,0c-6.4-6.1,0-13.2,0-13.2s-8.6,1.4-10.4-7.5c-1.8-8.9,7.1-10,7.1-10s-9.6,0.7-10.4-8.2c-0.7-8.9,8.6-10,8.6-10
					s-8.6-2.1-6.4-13.6c2.1-11.4,13.9-8.2,13.9-8.2s-6.8-5.4-2.1-12.1s11.3-4.8,11.3-4.8s-5.6-7.5,1.5-12.8c7.1-5.4,13.6,0,13.6,0
					s-3.6-8.6,5.4-11.4c8.9-2.9,12.9,3.6,12.9,3.6s-2.9-8.6,6.4-10.7c9.3-2.1,10.7,6.6,10.7,6.6s0.7-7.5,10.4-7.5s10,8.2,10,8.2
					s0.7-7.5,9.6-6.1c8.9,1.4,6.8,8.6,6.8,8.6s5.7-6.8,11.1-0.4s0,10,0,10s6.4,0,8.2,6.1c1.8,6.1-3.6,8.9-3.6,8.9s-1.8,6.8-8.2,5.7
					c-6.4-1.1-8.9-5.4-8.9-5.4s-0.4,4.3-6.4,7.1c-6.1,2.9-9.3-4.6-9.3-4.6s1.8,4.6-2.1,7.9c-3.9,3.2-9.3-1.4-9.3-1.4
					s3.6,4.3-0.7,8.9s-10.4,2.4-10.4,2.4s2.5,3.3,1.8,7.6c-0.7,4.3-5.4,5.2-5.4,5.2s4.3-0.3,5,6.4c0.7,6.6-5.5,7-5.5,7
					s5.1,0.3,5.9,7.8c0.7,7.5-2.5,11.4-2.5,11.4s-6.9-5.2-17.2-3.3c-10.3,1.9-5.3,30.8,13.4,32.2l-2.3,9.1L331.8,662.6z"/>
				<path fill="#8DC63F" d="M332.1,667.8l13.2,7.5c0,0,19.3,29.5,23.6,99.1c0,0-28.4,7.5-47.7-5.9c0,0,15-28.9,5.4-93.2L332.1,667.8
					z"/>
				<g>
					<g>
						<path fill="#F1F2F2" d="M375.2,585.2c-8.6,0-12.7,5.7-12.4,10.9s4.4,13,12.4,13S385.6,585.2,375.2,585.2z"/>
						<ellipse fill="#414042" cx="377.9" cy="597.3" rx="3.3" ry="4.3"/>
						<ellipse fill="#FFFFFF" cx="376.8" cy="595.4" rx="1.1" ry="1.3"/>
						<path fill="#414042" d="M362.9,597.2c0,0-0.3-5.1,4.6-8s10.8-3.1,14.6-0.8c0,0-2.6-2.8-6.9-3.2
							C370.9,584.8,361.3,587.6,362.9,597.2z"/>
					</g>
					<g>
						<path fill="#414042" d="M359,579.9c-0.2,0-0.4,0-0.5-0.1c-0.5-0.3-0.7-1-0.4-1.5c0.1-0.2,3-4.9,8.4-6.3
							c3.5-0.9,7.1-0.2,10.9,2c0.5,0.3,0.7,1,0.4,1.5c-0.3,0.5-1,0.7-1.5,0.4c-10.4-6.1-16.1,3.2-16.3,3.6
							C359.7,579.7,359.3,579.9,359,579.9z"/>
					</g>
				</g>
				<ellipse fill="#F89F76" cx="369.3" cy="615.4" rx="8.6" ry="3.9"/>
				<path fill="#F4806D" d="M399.9,621.7c0,0-6.6,1.6-10.2-2.3C389.7,619.4,394.5,627.1,399.9,621.7z"/>
				<path fill="#F9ED32" d="M345.4,675.3l-13.2-7.5L329,672c4.1,2.6,11.4,6.5,18.5,7.1C346.2,676.5,345.4,675.3,345.4,675.3z"/>
			</g>
			<path fill="#E6E7E8" d="M383.1,736.1c0.7-3.1,7.4-4.3,10.9-4.6c3.5-0.2,9.1,1.5,10.3,3.5s0.6,5.8,0.6,5.8s5.4,3.4,6.7,4.4
				c1.3,1,1.4,7.2,1.1,8.4c-0.3,1.2-4.5,0.3-4.5,0.3s-2.1,5-3.4,4.9c0,0-0.5,4.1-3.1,3.8c0,0-0.7,3.3-5.3,2.6
				c-4.5-0.7-9.4-4.3-11.5-5c-2.1-0.7-7.4-9.2-7.8-11.8C376.6,745.8,383.1,736.1,383.1,736.1z"/>
			<g>
				<path fill="#E6E7E8" d="M303,737.7c0,0,6.1,1.9,6.6,8.6s0.6,9.9,0.3,11.9c-0.3,2-6.4,2.5-6.4,2.5s-0.5,5.1-0.7,6.8
					c-0.2,1.6-7,0.8-8.1,0.6c-1.2-0.1-1.4-2.6-1.4-2.6s-5.2,0.1-6,0c-0.8-0.1-1.2-1.4-1.2-1.4s-0.2,1.3-1.3,1.1
					c-1.2-0.1-3.8-0.3-4.2-2.4s0.2-9.4,1.2-9.7c0,0,0-15.9,6.3-16.8C294.5,735.5,303,737.7,303,737.7z"/>
				<path fill="#D1D3D4" d="M303.6,760.7c0,0-6.9,0.1-8.5-1.1c-1.6-1.1-0.4-6.9,0.3-7.4c0.7-0.5,9.2,0,9.2,0s-7.3,0.5-8.3,1
					c-1,0.5-1.2,4.6-0.8,5.5C296.1,759.6,303.6,760.7,303.6,760.7z"/>
				<path fill="#D1D3D4" d="M293.4,765.5c0,0,0.6-4.4,0.6-7.2c0-2.8-2.5-2.9-3.8-2.9s-3.7,0.1-3.7,2.1c-0.1,2-0.3,6.5-0.3,6.5
					s0.8-5.5,1-6.5c0.3-1,1.5-1.5,2.9-1.2c1.4,0.2,3.5,0.9,3.5,2C293.5,759.5,293.4,765.5,293.4,765.5z"/>
				<path fill="#D1D3D4" d="M286.5,758.5c0,0,0.4-2.6-1.3-3.2c-1.7-0.6-3-0.8-3.6,0.2c-0.5,1-1,3-1,3s0.3-3.4,1.2-3.9
					c0.9-0.5,1.8-0.5,3.2,0.1C286.4,755.3,287.4,755.4,286.5,758.5z"/>
			</g>
			<path fill="#D1D3D4" d="M377.7,745.1l5.6-9.1c-2.1-1.2-4.7-2.7-7.1-4.2l-5.5,9.6C372.8,742.6,375.2,743.9,377.7,745.1z"/>
			<path fill="#FDC382" d="M359.2,708.7l-11.3,3.8c0,0,9.4,22.7,12.1,23.4c1.2,0.3,5.3,2.7,10.6,5.6l5.5-9.6c-5-3.1-9.8-6.2-9.8-6.2
				C365.3,722.5,359.2,708.7,359.2,708.7z"/>
			<path fill="#FFF200" d="M339.8,680.4c-10.3,4.5-3.1,11.1,1.7,37.4c0,0,16.7,3.1,24.4-9.7c0,0-5.9-2.9-10.3-13.6
				S348.1,676.7,339.8,680.4z"/>
		</g>
		<g>
			<g>
				<polygon fill="#FDC382" points="823.9,818.1 828.2,849.8 836.8,848.9 833.3,817.8 				"/>
				<path fill="#EEDC00" d="M821.8,845.5c0,0,15.6,0.1,20.3,0.2s4.3,16.2,3.3,18.4c0,0,15.3-6.2,24.8-3.9
					c9.5,2.3,10.7,14.2,7.3,21.2c0,0-49.1-0.4-52.5-0.4C821.5,881,821.8,845.5,821.8,845.5z"/>
				<path fill="#A1A3A6" d="M875.9,886.2l-50.9-0.4c-0.8,0-1.5-0.7-1.5-1.5l0-1.9c0-0.8,0.7-1.5,1.5-1.5l50.9,0.4
					c0.8,0,1.5,0.7,1.5,1.5l0,1.9C877.4,885.6,876.7,886.2,875.9,886.2z"/>
			</g>
			<g>
				<polygon fill="#FDC382" points="796.8,819.4 790.2,850.8 798.8,850.5 805.7,819.9 				"/>
				<path fill="#FFF200" d="M785.4,847c0,0,15.6,0.1,20.3,0.2c4.7,0,0.3,16.2-0.7,18.4c0,0,15.3-6.2,24.8-3.9
					c9.5,2.3,10.7,14.2,7.3,21.2c0,0-49.1-0.4-52.5-0.4S785.4,847,785.4,847z"/>
				<path fill="#BCBEC0" d="M835.6,887.7l-50.9-0.4c-0.8,0-1.5-0.7-1.5-1.5l0-1.9c0-0.8,0.7-1.5,1.5-1.5l50.9,0.4
					c0.8,0,1.5,0.7,1.5,1.5l0,1.9C837.1,887.1,836.4,887.7,835.6,887.7z"/>
			</g>
			<path fill="#88756A" d="M832,781.6c0,0,6.1,18.3,11.3,41c0,0-11.8,7.3-30,6.5c0,0-5.1-19.8-6-23
				C806.4,802.9,818.6,790.9,832,781.6z"/>
			<path fill="#9B8579" d="M789.4,772.4c0,0-0.5,11.5,0,15.8c1.1,8.7,0,26.3,0.5,36.8c0,0,14,5.5,30,4.1c0,0,16.9-45.9,17.2-50.9
				L789.4,772.4z"/>
			<g>
				<path fill="#FDC382" d="M855.3,551.7c0,0,10.2,12.3,4.8,28.9c-5.4,16.6,8,24.1,8,24.1s8.6-7,11.2,0c2.7,7,1.6,15-6.4,12.9l1.1,7
					l-6,1.1c0,0,2.3,2.1,2.3,4.3s-2.3,5.4-2.3,5.4s1.8,15.5-15.9,16.6c-17.7,1.1-32.7-0.5-36.4,9.6c-3.7,10.2-2.1,17.7-2.1,17.7
					h-12.9c0,0-0.5-12.9-1.1-16.1c-0.5-3.2,2.7-13.4,2.7-13.4s-13.4,0.5-18.2-17.1s11.8-19.3,22-11.8
					C806,620.8,783,550.1,855.3,551.7z"/>
				<path fill="#726658" d="M799.9,666.6c0,0-2.5-11.5-12.9-8.2c0,0-13.9,4.6-12.1-9.3c0,0-6.1,3.9-11.1,0c-5-3.9-2.1-9.6-2.1-9.6
					s-7.9,6.1-14.3,0c-6.4-6.1,0-13.2,0-13.2s-8.6,1.4-10.4-7.5c-1.8-8.9,7.1-10,7.1-10s-9.6,0.7-10.4-8.2c-0.7-8.9,8.6-10,8.6-10
					s-8.6-2.1-6.4-13.6c2.1-11.4,13.9-8.2,13.9-8.2s-6.8-5.4-2.1-12.1s11.3-4.8,11.3-4.8s-5.6-7.5,1.5-12.8c7.1-5.4,13.6,0,13.6,0
					s-3.6-8.6,5.4-11.4s12.9,3.6,12.9,3.6s-2.9-8.6,6.4-10.7c9.3-2.1,10.7,6.6,10.7,6.6s0.7-7.5,10.4-7.5s10,8.2,10,8.2
					s0.7-7.5,9.6-6.1c8.9,1.4,6.8,8.6,6.8,8.6s5.7-6.8,11.1-0.4c5.4,6.4,0,10,0,10s6.4,0,8.2,6.1c1.8,6.1-3.6,8.9-3.6,8.9
					s-1.8,6.8-8.2,5.7c-6.4-1.1-8.9-5.4-8.9-5.4s-0.4,4.3-6.4,7.1c-6.1,2.9-9.3-4.6-9.3-4.6s1.8,4.6-2.1,7.9
					c-3.9,3.2-9.3-1.4-9.3-1.4s3.6,4.3-0.7,8.9s-10.4,2.4-10.4,2.4s2.5,3.3,1.8,7.6c-0.7,4.3-5.4,5.2-5.4,5.2s4.3-0.3,5,6.4
					c0.7,6.6-5.5,7-5.5,7s5.1,0.3,5.9,7.8s-2.5,11.4-2.5,11.4s-6.9-5.2-17.2-3.3c-10.3,1.9-5.3,30.8,13.4,32.2l-2.3,9.1L799.9,666.6
					z"/>
				<path fill="#8DC63F" d="M800.3,671.7l13.2,7.5c0,0,19.3,29.5,23.6,99.1c0,0-28.4,7.5-47.7-5.9c0,0,15-28.9,5.4-93.2L800.3,671.7
					z"/>
				<g>
					<g>
						<path fill="#F1F2F2" d="M843.4,589.2c-8.6,0-12.7,5.7-12.4,10.9c0.3,5.2,4.4,13,12.4,13S853.7,589.2,843.4,589.2z"/>
						<ellipse fill="#414042" cx="846" cy="601.3" rx="3.3" ry="4.3"/>
						<ellipse fill="#FFFFFF" cx="844.9" cy="599.4" rx="1.1" ry="1.3"/>
						<path fill="#414042" d="M831.1,601.2c0,0-0.3-5.1,4.6-8s10.8-3.1,14.6-0.8c0,0-2.6-2.8-6.9-3.2
							C839.1,588.8,829.5,591.6,831.1,601.2z"/>
					</g>
					<g>
						<path fill="#414042" d="M827.1,583.9c-0.2,0-0.4,0-0.5-0.1c-0.5-0.3-0.7-1-0.4-1.5c0.1-0.2,3-4.9,8.4-6.3
							c3.5-0.9,7.1-0.2,10.9,2c0.5,0.3,0.7,1,0.4,1.5c-0.3,0.5-1,0.7-1.5,0.4c-10.4-6.1-16.1,3.2-16.3,3.6
							C827.8,583.7,827.5,583.9,827.1,583.9z"/>
					</g>
				</g>
				<ellipse fill="#F89F76" cx="837.4" cy="619.4" rx="8.6" ry="3.9"/>
				<path fill="#F4806D" d="M868,625.7c0,0-6.6,1.6-10.2-2.3C857.8,623.3,862.6,631.1,868,625.7z"/>
				<path fill="#F9ED32" d="M813.5,679.2l-13.2-7.5l-3.1,4.2c4.1,2.6,11.4,6.5,18.5,7.1C814.3,680.5,813.5,679.2,813.5,679.2z"/>
			</g>
			<path fill="#D1D3D4" d="M818.2,758.7l8.8-6c-1.5-1.9-3.2-4.3-4.8-6.7l-9,6.5C814.7,754.5,816.4,756.6,818.2,758.7z"/>
			<path fill="#FDC382" d="M816.1,717.9l-11.9-1.1c0,0-0.6,24.5,1.6,26.3c1,0.8,3.7,4.6,7.5,9.4l9-6.5c-3.4-4.9-6.4-9.6-6.4-9.6
				C816.1,733,816.1,717.9,816.1,717.9z"/>
			<path fill="#FFF200" d="M809.9,684.2c-11.3-0.1-7.3,8.9-13.7,34.9c0,0,14,9.6,26.3,1c0,0-4.2-5-3.9-16.6
				C818.9,691.8,819,684.2,809.9,684.2z"/>
			<path fill="#E6E7E8" d="M827,753c2.1-2.4,8.5-0.2,11.7,1.3c3.2,1.5,7.3,5.7,7.3,8c0,2.3-2.3,5.3-2.3,5.3s3.1,5.6,3.7,7.1
				c0.6,1.5-2.3,7-3.1,7.9c-0.8,0.9-4.1-2-4.1-2s-4.3,3.3-5.4,2.6c0,0-2.4,3.3-4.6,1.8c0,0-2.2,2.5-5.8-0.3
				c-3.6-2.8-6.2-8.3-7.7-9.9s-2-11.7-1.1-14.1C816.6,758.3,827,753,827,753z"/>
		</g>
	</g>
</g>
</svg>
